<?xml version="1.0" encoding="UTF-8" standalone="no"?>
<svg width="340px" height="192px" viewBox="0 0 340 192" version="1.1" xmlns="http://www.w3.org/2000/svg" xmlns:xlink="http://www.w3.org/1999/xlink" xmlns:sketch="http://www.bohemiancoding.com/sketch/ns">
    <!-- Generator: Sketch Beta 3.4 (14861) - http://www.bohemiancoding.com/sketch -->
    <title>drop</title>
    <desc>Created with Sketch Beta.</desc>
    <defs></defs>
    <g id="Page-1" stroke="none" stroke-width="1" fill="none" fill-rule="evenodd" sketch:type="MSPage">
        <g id="drop" sketch:type="MSArtboardGroup" fill-opacity="0.87" fill="#FFFFFF">
            <path d="M209.791864,88.7790961 L130.106742,88.7790961 C130.036397,89.2647101 130,89.7611373 130,90.2659591 C130,96.0141614 134.719084,100.674 140.54037,100.674 C144.974689,100.674 148.769455,97.9701229 150.325997,94.140967 L150.325997,94.140967 C151.88254,97.9701229 155.677305,100.674 160.111624,100.674 C164.596193,100.674 168.426631,97.9084955 169.949303,94.0103611 L169.949303,94.0103611 C171.471975,97.9084955 175.302413,100.674 179.786981,100.674 C184.221301,100.674 188.016066,97.9701229 189.572609,94.140967 L189.572609,94.140967 C191.129152,97.9701229 194.923917,100.674 199.358236,100.674 C205.179522,100.674 209.898606,96.0141614 209.898606,90.2659591 C209.898606,89.7611373 209.862208,89.2647101 209.791864,88.7790961 L209.791864,88.7790961 L209.791864,88.7790961 L209.791864,88.7790961 L209.791864,88.7790961 L209.791864,88.7790961 Z M141.428571,64 L130,86.3785481 L210,86.3785481 L198.571429,64 L141.428571,64 L141.428571,64 L141.428571,64 L141.428571,64 L141.428571,64 Z M137.503168,103.597324 L137.503168,123.027623 C137.503168,126.326076 140.209644,129 143.543463,129 L197.876056,129 C201.212018,129 203.91635,126.319091 203.91635,123.027623 L203.91635,103.597324 L200.897569,103.597324 L200.897569,123.027623 C200.897569,124.670681 199.542648,126.01145 197.876056,126.01145 L143.543463,126.01145 C141.875125,126.01145 140.52195,124.673817 140.52195,123.027623 L140.52195,103.597324 L137.503168,103.597324 L137.503168,103.597324 L137.503168,103.597324 L137.503168,103.597324 L137.503168,103.597324 Z M156.8042,114.809368 C159.734054,118.193088 163.953302,120.230028 169.575883,120.230028 C175.174299,120.230028 179.533882,118.230672 182.73599,114.910823 C184.658242,112.91789 185.775873,110.919314 186.273764,109.522916 L183.422748,108.536733 C183.340902,108.766281 183.138494,109.222763 182.799266,109.829378 C182.222179,110.86134 181.475494,111.896473 180.545269,112.860902 C177.892611,115.611099 174.310774,117.253771 169.575883,117.253771 C164.865155,117.253771 161.474959,115.617075 159.103341,112.878068 C158.27213,111.918094 157.627641,110.886529 157.150188,109.857614 C156.869522,109.252775 156.710823,108.798345 156.651321,108.572206 L153.726236,109.318867 C154.101121,110.743642 155.044941,112.777582 156.8042,114.809368 L156.8042,114.809368 L156.8042,114.809368 L156.8042,114.809368 L156.8042,114.809368 L156.8042,114.809368 Z" id="Rectangle-14" sketch:type="MSShapeGroup"></path>
        </g>
    </g>
</svg>