<?xml version="1.0" encoding="UTF-8" standalone="no"?>
<svg width="260px" height="260px" viewBox="0 0 260 260" version="1.1" xmlns="http://www.w3.org/2000/svg" xmlns:xlink="http://www.w3.org/1999/xlink" xmlns:sketch="http://www.bohemiancoding.com/sketch/ns">
    <!-- Generator: Sketch 3.3.3 (12072) - http://www.bohemiancoding.com/sketch -->
    <title>logo2</title>
    <desc>Created with Sketch.</desc>
    <defs></defs>
    <g id="Page-1" stroke="none" stroke-width="1" fill="none" fill-rule="evenodd" sketch:type="MSPage">
        <g id="logo2" sketch:type="MSArtboardGroup">
            <g id="Oval-2-Copy-4-+-Rectangle-129" sketch:type="MSLayerGroup" transform="translate(3.000000, 33.000000)">
                <path d="M194.982668,50.2746432 C176.504432,20.2483917 143.337326,0.228750066 105.494383,0.228750066 C97.3524974,0.228750066 89.4270528,1.15544434 81.8177701,2.90911207 C35.2305738,13.6457959 0.494383059,55.380737 0.494383059,105.22875 C0.494383059,163.218649 47.5044843,210.22875 105.494383,210.22875 C163.484282,210.22875 210.494383,163.218649 210.494383,105.22875 C210.494383,88.6473449 206.650863,72.9636419 199.806139,59.0199568 L178.314139,61.278857 L178.314139,61.278857 L178.314139,152.663213 L177.580465,152.663213 L177.591297,152.766266 L158.145036,154.81015 L157.183208,145.658969 L169.11255,144.405144 L169.11255,144.405144 L169.11255,62.245983 L146.702578,64.601366 L145.74075,55.4501843 L194.982672,50.2746498 Z M62.8771951,110.402565 L62.8771951,90.8465638 L83.3511152,88.6946681 L82.3892872,79.5434865 L62.8771951,81.59429 L62.8771951,62.64197 L83.280588,56.7913912 L80.7442863,47.9462563 L33.2016861,61.5788775 L35.7379877,70.4240125 L53.6756062,65.2804831 L53.6756062,82.561416 L53.6756062,82.561416 L33.2016861,84.7133117 L34.163514,93.8644933 L53.6756062,91.8136898 L53.6756062,111.369691 L26.6000679,114.215445 L27.5618958,123.366626 L53.6756062,120.621965 L53.6756062,155.474248 L39.4521675,156.969192 L40.4139955,166.120374 L61.9846359,163.853208 L62.8771951,163.853208 L62.8771951,119.654839 L89.3323717,116.874288 L88.3705438,107.723106 L62.8771951,110.402565 Z M127.7054,118.008699 L127.7054,151.513014 L127.543658,151.513014 L127.560808,151.676181 L109.258444,153.599837 L108.296616,144.448656 L118.503811,143.375836 L118.503811,120.647212 L107.669976,123.753765 L105.133674,114.90863 L118.503811,111.074805 L118.503811,80.6491607 L104.057313,82.1675489 L103.095485,73.0163672 L118.503811,71.3968869 L118.503811,44.5445437 L127.7054,44.5445437 L127.7054,70.429761 L141.0017,69.0322636 L141.963528,78.1834452 L127.7054,79.6820348 L127.7054,108.436291 L137.389037,105.659553 L139.925339,114.504688 L127.7054,118.008699 Z" id="Oval-2-Copy-4" fill="#FF5E6F" sketch:type="MSShapeGroup"></path>
                <path d="M84.6665745,177.637863 L134.392669,172.41144 L135.333425,181.362137 L85.6073307,186.58856 L84.6665745,177.637863 L84.6665745,177.637863 Z" id="Rectangle-129" opacity="0.5" fill="#FFFFFF" sketch:type="MSShapeGroup"></path>
            </g>
            <path d="M30.0464769,52.0008093 C30.6639891,52.0256419 32.3651527,51.8520262 34.1804749,50.1770619 C36.2331853,48.2830638 36.1360113,45.6840997 34.8089242,44.245806 C33.0566539,42.3466998 30.539171,43.092553 29.0505631,43.6646471 C27.5351069,44.2356615 26.7554249,44.2311992 26.2787043,43.7145306 C25.9308271,43.3375022 25.9986313,42.6544886 26.5013359,42.1906523 C27.3531409,41.4047075 29.0811529,41.2321715 29.2712508,41.1860326 C29.4871173,41.1678216 29.6225105,40.8102273 29.5785309,40.5664328 L29.2986015,38.8341021 C29.2642672,38.6848166 29.0602771,38.4076956 28.8025185,38.4645596 C28.1001425,38.5438815 26.3001511,38.8345359 24.8478934,40.1745073 C22.6974348,42.1586958 22.9106396,44.5471917 24.1861894,45.9296294 C25.7323103,47.6053114 28.1036749,47.1493916 29.7426479,46.5161149 C31.0400783,46.0170082 31.9411177,46.0129048 32.4822601,46.5993935 C32.933212,47.088134 32.850364,47.8108803 32.2918034,48.326254 C31.3701783,49.1766205 29.681899,49.3642001 29.6002743,49.3878095 C29.4381044,49.4081798 29.1470195,49.6250542 29.2028037,49.9096612 L29.6158953,51.6742386 C29.6845639,51.9728095 29.7779933,51.9900126 30.0464769,52.0008093 L30.0464769,52.0008093 Z M35.3160934,40.7134351 C37.6116624,43.7416958 41.8441071,44.3241857 44.8723678,42.0286166 C47.9006284,39.7330476 48.4982596,35.4891251 46.2026906,32.4608644 C43.9071215,29.4326038 39.6365799,28.8313091 36.6083192,31.1268782 C33.5800585,33.4224472 33.0205244,37.6851745 35.3160934,40.7134351 L35.3160934,40.7134351 Z M37.7387019,38.8769799 C36.476139,37.2114365 36.7943724,34.8005718 38.4447744,33.5494867 C40.1103178,32.2869237 42.517519,32.6317763 43.780082,34.2973197 C45.0311671,35.9477217 44.7014559,38.3434451 43.0359125,39.6060081 C41.3855105,40.8570932 38.9897871,40.527382 37.7387019,38.8769799 L37.7387019,38.8769799 Z M53.2342068,36.6312376 C53.3273076,36.7968644 53.5435998,36.8714479 53.7257893,36.769037 L59.953357,33.2684462 C60.1355465,33.1660353 60.1842572,32.9424905 60.0911564,32.7768637 L59.0763575,30.9715315 C58.9832566,30.8059047 58.7669645,30.7313213 58.584775,30.8337322 L54.6428571,33.0495317 L49.6712733,24.2050605 C49.5781725,24.0394337 49.3453177,23.9741603 49.1796909,24.0672611 L47.2087319,25.1751609 C47.0265424,25.2775718 46.9778317,25.5011165 47.0709326,25.6667433 L53.2342068,36.6312376 Z M62.7136394,32.0250676 C62.7912492,32.198494 62.9998391,32.29249 63.1732655,32.2148803 L67.4048706,30.3212028 C70.7520008,28.8233349 72.2736657,24.874306 70.7680369,21.5098332 C69.27793,18.1800456 65.3193195,16.6834843 61.9721892,18.1813522 L57.7405842,20.0750297 C57.5671577,20.1526394 57.4982653,20.370811 57.5758751,20.5442374 L62.7136394,32.0250676 Z M64.4179263,28.5771547 L61.2747321,21.553384 L62.9396259,20.8083305 C64.8993446,19.9313405 67.012168,20.838436 67.889158,22.7981547 C68.773909,24.7752161 68.0425388,26.9551112 66.0828201,27.8321012 L64.4179263,28.5771547 Z M75.299907,27.8424694 L77.3006873,27.2383352 C77.6644656,27.1284926 77.798638,26.8498122 77.8236771,26.6040846 L78.0391075,24.951255 L82.9864915,23.4573958 L84.0751706,24.6966032 C84.3432213,24.9927633 84.5216853,25.0579598 84.8490857,24.9591014 L86.868055,24.3494751 C87.1408886,24.2670931 87.2150023,23.9867002 87.0344711,23.7831971 L77.6451386,13.261096 C77.557619,13.1684389 77.402836,13.1159393 77.2755136,13.1543842 L77.0936245,13.2093055 C76.9663021,13.2477504 76.8664404,13.3771398 76.8448264,13.5027497 L74.8479002,27.4629239 C74.8101644,27.7323325 75.0270734,27.9248513 75.299907,27.8424694 L75.299907,27.8424694 Z M78.3835126,22.1480352 L78.8414796,18.7349551 L78.8596686,18.7294629 L81.1482272,21.3132315 L78.3835126,22.1480352 Z M94.5830984,23.4546875 C94.6083371,23.6430037 94.781705,23.7922974 94.9888528,23.7645348 L97.2109845,23.4667182 C97.3993008,23.4414795 97.5460706,23.24928 97.5208319,23.0609638 L96.9277224,18.635532 L98.905043,18.3705257 C101.202501,18.0626135 102.849584,15.9057086 102.536624,13.5705872 C102.231236,11.2919606 100.076855,9.66370902 97.7605653,9.97414503 L93.2221438,10.5823977 C93.014996,10.6101603 92.8870578,10.7998359 92.9122965,10.9881521 L94.5830984,23.4546875 Z M96.5592374,15.8861149 L96.1730853,13.0048763 L97.9620896,12.7651087 C98.7718494,12.6565822 99.5305518,13.1683349 99.6365543,13.9592631 C99.7501285,14.8066862 99.1580016,15.5378208 98.3482417,15.6463472 L96.5592374,15.8861149 Z M106.514488,22.6443312 C106.520315,22.8342419 106.696479,22.9999173 106.886389,22.9940905 L109.165317,22.924169 C109.355228,22.9183422 109.520903,22.7421785 109.515076,22.5522679 L109.129343,9.98018401 C109.123516,9.79027338 108.947352,9.62459793 108.757442,9.63042472 L106.478514,9.70034624 C106.288603,9.70617304 106.122928,9.88233672 106.128755,10.0722474 L106.514488,22.6443312 Z M112.833294,16.4427317 C112.721126,20.2410758 115.68962,23.3510543 119.487964,23.4632218 C121.178227,23.5131363 122.828901,22.972625 124.157354,21.7573084 C124.294222,21.6282922 124.320504,21.3819607 124.191488,21.2450928 L122.756683,19.6250346 C122.646659,19.4887275 122.399766,19.4814366 122.263459,19.5914611 C121.562371,20.1600143 120.584259,20.4542708 119.691649,20.4279115 C117.545584,20.3645368 116.001877,18.5701882 116.06413,16.4621072 C116.126943,14.3350344 117.755975,12.5963622 119.902039,12.6597368 C120.832634,12.6872179 121.753133,13.0565499 122.437319,13.7040276 C122.566335,13.8408956 122.775244,13.8470648 122.912112,13.7180486 L124.438894,12.2234645 C124.595315,12.0760175 124.602045,11.8481168 124.435606,11.6911355 C123.178941,10.4755119 121.790939,9.84526653 119.891767,9.78918278 C116.093423,9.67701527 112.945461,12.6443875 112.833294,16.4427317 L112.833294,16.4427317 Z M127.185897,24.0300978 C127.149846,24.2744527 127.307306,24.5089462 127.570458,24.5477705 L129.769652,24.8722312 C130.014007,24.9082824 130.251273,24.7320254 130.287325,24.4876705 L131.113729,18.8863046 L134.584952,25.4290169 C134.614226,25.4909528 134.772302,25.5910974 134.903878,25.6105096 L137.497799,25.9932068 C137.854933,26.045897 138.122704,25.6628782 137.95754,25.3504254 L134.085117,18.4028196 L139.296043,13.5443577 C139.544403,13.2929146 139.417447,12.8516592 139.060313,12.798969 L136.69195,12.4495498 C136.579171,12.4329108 136.396136,12.501935 136.307084,12.5848249 L131.366087,17.1758204 L132.09543,12.232333 C132.131482,11.9879781 131.955225,11.7507114 131.71087,11.7146603 L129.511676,11.3901996 C129.248524,11.3513752 129.030054,11.5304054 128.994003,11.7747603 L127.185897,24.0300978 Z M140.052695,26.0358587 C140.360183,26.5719453 141.412207,27.9200348 143.796224,28.5660729 C146.491996,29.2965929 148.640961,27.8316674 149.152822,25.9427927 C149.828677,23.4487447 147.857833,21.7138698 146.581479,20.7577507 C145.291755,19.7783235 144.880744,19.1157573 145.064616,18.4372295 C145.198793,17.9420876 145.813204,17.6361386 146.473393,17.8150415 C147.592047,18.1181824 148.65744,19.4895801 148.79764,19.6259987 C148.9279,19.7990946 149.302721,19.7234987 149.485756,19.5565609 L150.803677,18.3979353 C150.911818,18.2894433 151.037947,17.9692877 150.85267,17.7812833 C150.411842,17.2287486 149.20814,15.8592415 147.300927,15.342411 C144.476784,14.5771043 142.56776,16.0283099 142.075777,17.8438301 C141.479434,20.0444608 143.127044,21.8098548 144.535199,22.8607459 C145.648046,23.6938154 146.130871,24.4545835 145.922151,25.2248043 C145.748218,25.8666549 145.092161,26.1810034 144.358617,25.9822224 C143.148271,25.6542338 142.091277,24.3244829 142.027862,24.2679277 C141.924339,24.141448 141.585845,24.0103499 141.374532,24.2089954 L140.100148,25.4975306 C139.883866,25.7145146 139.919004,25.8027776 140.052695,26.0358587 L140.052695,26.0358587 Z M157.840229,33.8763112 C157.815085,34.0309586 157.909681,34.1957365 158.049315,34.2557887 L158.328583,34.3758931 C158.450763,34.4284387 158.610476,34.393713 158.707878,34.3115068 L164.954727,28.5388914 L165.007089,28.561411 L165.131055,37.0739079 C165.138379,37.2011532 165.223026,37.3409703 165.345206,37.3935159 L165.624475,37.5136203 C165.764109,37.5736725 165.948783,37.528999 166.043743,37.4043778 L174.386988,27.0938309 C174.561896,26.879497 174.497327,26.644902 174.252967,26.5398106 L172.210816,25.6615472 C172.071182,25.601495 171.879002,25.6636228 171.791547,25.7707898 L167.745767,31.0422315 L167.67595,31.0122054 L167.612832,23.7047856 C167.622963,23.5850468 167.55577,23.4527362 167.398681,23.3851775 L167.084504,23.2500601 C166.94487,23.1900079 166.802611,23.2322402 166.705209,23.3144463 L161.357498,28.2948435 L161.287681,28.2648175 L162.331325,21.7022535 C162.348962,21.5650604 162.261873,21.3828282 162.122239,21.322776 L160.080087,20.4445127 C159.835727,20.3394213 159.621028,20.453912 159.585754,20.7282981 L157.840229,33.8763112 Z M171.37961,41.1563435 C171.278625,41.3172844 171.316491,41.5429194 171.493526,41.6540031 L178.156482,45.8347895 C178.333517,45.9458732 178.553157,45.8818145 178.654142,45.7208735 L179.75488,43.966617 C179.855865,43.805676 179.817999,43.580041 179.640964,43.4689573 L175.182899,40.6716679 L176.546199,38.4989649 L180.215653,40.8014269 C180.376594,40.9024121 180.602229,40.864546 180.713313,40.6875109 L181.814051,38.9332544 C181.915037,38.7723135 181.861076,38.5365799 181.700135,38.4355948 L178.030681,36.1331327 L179.282898,34.1374648 L183.740962,36.9347542 C183.917997,37.0458379 184.137637,36.9817791 184.238622,36.8208382 L185.339361,35.0665817 C185.440346,34.9056407 185.40248,34.6800057 185.225445,34.568922 L178.562489,30.3881357 C178.385454,30.277052 178.165814,30.3411107 178.064829,30.5020516 L171.37961,41.1563435 Z M181.07816,48.1684732 C180.961153,48.3181708 180.975605,48.5465042 181.140272,48.6752118 L187.337754,53.5192977 C187.502422,53.6480053 187.727486,53.606883 187.844493,53.4571853 L189.119868,51.8254811 C189.236875,51.6757834 189.222423,51.44745 189.057756,51.3187424 L184.911131,48.0776511 L186.490724,46.0567329 L189.903831,48.7244904 C190.053528,48.8414973 190.281862,48.8270454 190.410569,48.662378 L191.685945,47.0306737 C191.802951,46.8809761 191.77353,46.640942 191.623832,46.5239351 L188.210726,43.8561776 L189.661612,41.9999269 L193.808236,45.2410182 C193.972904,45.3697258 194.197968,45.3286034 194.314975,45.1789058 L195.59035,43.5472015 C195.707357,43.3975039 195.692905,43.1691705 195.528238,43.0404629 L189.330755,38.1963769 C189.166088,38.0676693 188.941024,38.1087917 188.824017,38.2584893 L181.07816,48.1684732 Z M190.062451,56.0620453 C189.8912,56.2400403 189.883215,56.5223827 190.074902,56.7068065 L191.676856,58.2480628 C191.854851,58.4193135 192.150367,58.4136068 192.321617,58.2356118 L196.24721,54.15542 L195.273681,61.4976756 C195.261545,61.5650976 195.33208,61.7384235 195.427923,61.8306354 L197.317408,63.6485274 C197.577554,63.8988169 198.017974,63.7424991 198.06496,63.3922159 L198.947,55.4873506 L206.010636,54.5581309 C206.358844,54.4976566 206.511734,54.0647031 206.251588,53.8144136 L204.526406,52.1545992 C204.444254,52.0755604 204.255161,52.0254618 204.134528,52.0412289 L197.445965,52.9094554 L200.910498,49.3084808 C201.081749,49.1304859 201.076042,48.8349703 200.898047,48.6637196 L199.296093,47.1224634 C199.104406,46.9380396 198.822582,46.9569194 198.651332,47.1349143 L190.062451,56.0620453 Z M199.106751,66.2652861 C198.959939,66.3858944 198.924296,66.6118911 199.056965,66.7733839 L203.591837,72.2934991 C203.724506,72.4549919 203.953123,72.4638936 204.099934,72.3432854 L205.700181,71.0286549 C205.846992,70.9080466 205.882636,70.6820499 205.749967,70.5205572 L202.879489,67.0264417 L210.719228,60.5859586 C210.866039,60.4653503 210.889622,60.2246725 210.769014,60.0778609 L209.333775,58.3308031 C209.201106,58.1693104 208.972489,58.1604086 208.825677,58.2810169 L199.106751,66.2652861 Z M206.191994,76.0498971 C206.035709,76.1579474 205.981492,76.3802211 206.100348,76.552135 L207.386146,78.4119313 C207.494197,78.5682167 207.732099,78.6116282 207.888384,78.5035779 L212.873889,75.0567724 L220.49852,74.9594895 C220.788131,74.9440524 220.951747,74.6461435 220.778867,74.3960869 L219.374213,72.3643767 C219.276967,72.2237198 219.155605,72.2152308 219.060675,72.2115653 L214.354925,72.25423 L216.056876,67.8668312 C216.086975,67.7767254 216.111093,67.6445576 216.024653,67.5195293 L214.619998,65.487819 C214.447118,65.2377624 214.110621,65.2856146 213.99389,65.5511084 L211.16187,72.6138967 L206.191994,76.0498971 Z M215.284167,90.2768481 C215.947196,91.6234712 217.609099,92.202968 218.904585,91.5651174 C220.251208,90.9020886 220.822312,89.2231389 220.159283,87.8765158 C219.521433,86.5810303 217.850876,86.0269721 216.504253,86.6900009 C215.208767,87.3278515 214.646316,88.9813626 215.284167,90.2768481 L215.284167,90.2768481 Z M237.276727,109.690636 C235.247512,106.45809 233.340144,102.315946 231.54829,97.2462923 L230.073321,98.4326272 C230.801459,100.492734 231.5506,102.384202 232.291248,104.13761 L230.034087,104.935396 L227.919321,98.9521294 L226.092096,99.5979562 L228.206862,105.581223 L225.842218,106.416999 L223.201926,98.9468726 L221.392614,99.5863678 L224.032907,107.056494 L220.93379,108.151867 C220.557596,108.284831 220.2719,108.103684 220.107277,107.637921 C219.816022,106.813878 219.554263,105.959258 219.309337,105.038233 L217.651985,106.107663 L218.633389,108.884329 C219.089266,110.174135 219.932612,110.621676 221.150762,110.191125 L224.697729,108.937461 L227.110082,115.762684 L228.919393,115.123189 L226.50704,108.297966 L228.871684,107.46219 L230.809165,112.943865 L232.63639,112.298038 L230.698909,106.816363 L233.117295,105.961592 C234.066733,107.963633 235.041343,109.694803 236.023211,111.161433 L237.276727,109.690636 Z M231.91801,125.73267 C231.410473,125.009061 230.918507,124.263554 230.467175,123.530457 L233.595903,123.002262 L233.972281,125.231715 L235.864506,124.912268 L235.488127,122.682815 L238.63559,122.151457 L238.300329,120.165558 L235.152866,120.696916 L234.691091,117.961621 L232.798866,118.281068 L233.260641,121.016363 L229.438722,121.661583 C228.96817,120.700504 228.535088,119.733099 228.158211,118.756206 L226.366955,119.559597 C226.755999,120.380286 227.160616,121.179076 227.565232,121.977867 L223.630903,122.642064 C223.218736,122.711646 222.955963,122.524782 222.883217,122.093879 C222.794658,121.569302 222.73408,120.982194 222.707808,120.370026 L220.891492,121.139111 L221.217264,123.068806 C221.438663,124.380248 222.186349,124.928433 223.460323,124.71336 L228.593685,123.846741 C229.029445,124.601736 229.499513,125.331671 229.96958,126.061605 L231.91801,125.73267 Z M237.916825,124.97044 L236.005865,125.293049 L236.81239,130.070449 L225.346632,132.006108 C224.859525,132.088342 224.58118,131.923375 224.517923,131.548677 C224.362943,130.630667 224.235945,129.650127 224.140092,128.625791 L222.320612,129.376141 L222.855133,132.542339 C223.06388,133.778842 223.845873,134.301966 225.176051,134.077404 L237.147651,132.056348 L237.62524,134.885318 L239.5362,134.562708 L237.916825,124.97044 Z M226.798035,149.783637 L227.442114,150.431552 C227.899635,149.919908 228.472114,149.085604 228.949707,148.213018 L228.937975,152.165001 C228.083091,152.124463 227.399263,152.065432 226.791379,152.025627 L226.798035,149.783637 Z M228.953881,146.807024 L228.21514,146.044828 C227.851886,146.803753 227.317406,147.63817 226.802434,148.301644 L226.814787,144.140662 C227.498446,144.256692 228.20116,144.353779 228.960819,144.470035 L228.953881,146.807024 Z M232.886074,147.084699 L232.12839,146.303446 C231.803191,147.043484 231.306825,147.840014 230.810853,148.503545 L230.822077,144.722561 C231.524792,144.819648 232.208507,144.916678 232.892278,144.994708 L232.886074,147.084699 Z M230.806453,149.985538 L231.450532,150.633453 C231.889053,150.121753 232.442476,149.306392 232.881956,148.471693 L232.870506,152.328676 C232.110566,152.30742 231.445625,152.286446 230.799741,152.246528 L230.806453,149.985538 Z M228.847028,157.199753 L230.861019,157.205732 L230.869141,154.469744 C231.781024,154.510451 232.749907,154.551328 233.851789,154.592599 C234.117788,154.593389 234.839729,154.614532 234.839729,154.614532 L234.873121,143.366582 C235.347103,143.70999 235.821142,144.034399 236.333181,144.35892 L236.297138,156.499867 L238.311129,156.505846 L238.343675,145.542894 C238.742109,145.734078 239.140543,145.925261 239.520034,146.097389 L240.172687,143.857316 C237.838574,142.881383 235.449492,141.221283 233.991688,139.468948 C233.704997,140.038099 233.037066,141.024121 232.674658,141.498047 C233.148246,141.974455 233.69789,142.432089 234.266477,142.908779 C233.22182,142.791677 232.04422,142.65518 230.904676,142.499797 L230.913306,139.592809 L228.899315,139.58683 L228.891531,142.208819 C227.391215,141.976364 225.966898,141.744135 224.84658,141.512808 L224.816234,151.734763 C224.55046,151.657973 224.398687,151.581522 224.284913,151.505184 C224.019422,151.333395 223.981929,151.162283 223.982888,150.839285 C223.965073,150.44023 223.986273,149.69929 224.064811,148.844519 C223.569967,149.128051 222.828237,149.37285 222.334182,149.390384 C222.274362,150.34021 222.271486,151.309206 222.36468,151.917485 C222.457762,152.563765 222.646238,153.077326 223.252995,153.49713 C223.537373,153.706975 224.01192,153.860384 224.809521,153.995753 L224.802527,156.351742 L226.778518,156.357608 L226.784836,154.229618 C227.392664,154.288422 228.057548,154.328396 228.855375,154.387765 L228.847028,157.199753 Z M233.316459,173.528238 L232.252529,173.325898 L232.696257,170.992718 L233.760187,171.195058 L233.316459,173.528238 Z M231.439619,177.600285 L231.904646,175.155112 L232.968576,175.357452 L232.503549,177.802625 L231.439619,177.600285 Z M229.254153,174.651036 L230.41141,174.871125 L229.946383,177.316298 L228.789126,177.096209 L229.254153,174.651036 Z M230.736386,170.619986 L231.203022,170.708732 L230.759293,173.041912 L229.602036,172.821823 L230.045764,170.488643 L230.736386,170.619986 Z M224.045578,173.563758 L224.400561,171.697213 L226.024454,172.006048 L225.669472,173.872593 L224.045578,173.563758 Z M227.29589,176.812223 L222.554868,175.910567 C222.312217,175.86442 222.233089,175.772009 222.279237,175.529358 L222.403481,174.876067 L226.715198,175.696077 L227.652352,170.7684 L223.340635,169.948391 L222.595172,173.868134 C222.022842,174.030055 221.196295,174.104947 220.659464,174.080214 C220.425175,175.312133 220.280549,176.174293 220.487816,176.813269 C220.70665,177.493125 221.156453,177.772075 222.127056,177.956666 L233.90495,180.196607 L235.935451,169.519974 L231.119767,168.604118 C228.805252,168.16394 225.58678,167.493824 223.479988,166.164804 C223.178823,166.629723 222.500914,167.448484 222.109055,167.780111 C223.818491,168.859496 226.341074,169.629354 228.559629,170.167326 L227.29589,176.812223 Z M233.647156,167.518197 C234.503017,167.390858 235.823682,167.15851 236.880397,166.992008 L236.666484,164.862545 C235.635534,164.995267 234.221542,165.209865 233.33545,165.292774 L233.647156,167.518197 Z M228.571072,166.649521 L228.538092,166.314459 L228.669435,165.623838 C229.84994,166.331862 231.213549,167.09405 232.408252,167.727413 L233.28151,163.135714 L231.302973,162.759432 L230.926691,164.737969 C229.615529,164.005096 228.233254,163.239358 227.269636,162.611263 L226.868505,164.720458 C225.681817,164.146642 224.516429,163.460833 223.663886,162.757159 C223.374857,162.141315 222.916922,161.396645 222.31768,160.683123 L219.909383,161.753013 C220.891668,162.384658 222.040224,163.260671 221.958578,163.689977 C221.891131,164.04462 221.147378,164.599432 220.56898,165.301734 C219.529444,166.496553 219.029488,168.006737 218.557361,170.489241 C218.142032,172.673098 217.65147,175.964399 217.450162,177.53138 C218.040356,177.682305 219.055505,178.242838 219.603102,178.617749 C219.698485,176.489088 220.14725,173.112475 220.55548,170.965949 C220.97081,168.782093 221.412936,167.067505 222.419607,165.943798 C222.8141,165.496628 223.161528,165.195232 223.40853,164.913418 C224.69221,165.892492 226.321601,166.782589 227.982941,167.504697 L228.571072,166.649521 Z M221.678743,195.690741 L222.730674,193.021546 L220.786227,192.255238 L217.75583,199.944641 L219.700276,200.710948 L220.856704,197.776602 L222.359231,198.368748 L220.965945,201.904106 L222.875038,202.656481 L224.268324,199.121123 L225.841558,199.741135 L226.663597,197.655274 L225.090363,197.035262 L226.400052,193.712026 L224.490959,192.959651 L223.18127,196.282887 L221.678743,195.690741 Z M219.63368,190.412305 L219.876035,188.812769 L223.323009,190.171224 L222.723896,191.691427 L224.721373,192.478634 L225.320486,190.95843 L228.749783,192.309918 L229.536989,190.312441 L226.107693,188.960953 L226.38635,188.253882 C226.970205,188.586091 227.54335,188.893657 228.141139,189.190512 L229.015592,187.697131 C226.921722,186.688136 224.773779,185.453607 223.564885,184.323669 C223.287886,184.663793 222.712467,185.294755 222.414047,185.585593 C222.952882,186.08386 223.700093,186.623403 224.514269,187.148493 L224.110216,188.173747 L220.221322,186.641132 C220.427187,185.496927 220.612152,184.405753 220.77726,183.572243 L218.436343,183.241932 L218.117784,185.812126 L213.044546,183.81276 L212.25734,185.810237 L217.825528,188.004663 L217.59867,189.875796 L219.63368,190.412305 Z M216.208461,190.553249 C215.060418,190.978962 213.527752,191.396051 212.639032,191.474673 L213.062471,193.561244 C213.972091,193.429591 215.472626,192.938573 216.549961,192.484994 L216.208461,190.553249 Z M215.757122,200.300596 L216.425899,198.603624 L217.663274,199.091274 L218.485313,197.005413 L217.247938,196.517763 L219.463263,190.896545 L217.536493,190.137204 L215.321168,195.758422 L211.67975,194.323337 C211.449952,194.232774 211.40711,194.134201 211.511607,193.869049 C211.62307,193.58622 211.999257,192.631674 212.362033,191.814798 C211.656526,191.843091 210.6789,191.784564 210.02538,191.629123 C209.516831,192.919529 209.179741,193.930328 209.233199,194.727442 C209.2904,195.566875 209.76175,195.977279 210.804681,196.388299 L214.499129,197.844283 L213.830352,199.541255 L215.757122,200.300596 Z M206.107661,212.575307 L204.973336,214.375776 L203.992723,213.757974 L205.127048,211.957505 L206.107661,212.575307 Z M201.227806,218.146619 L202.868526,215.542368 L203.849139,216.16017 L202.603407,218.137472 L204.001986,219.018599 L205.247718,217.041298 L206.099726,217.578077 L207.223923,215.793683 L206.371915,215.256904 L207.50624,213.456434 L208.358248,213.993213 L209.452062,212.257046 L208.600054,211.720267 L209.82553,209.775117 L208.426951,208.893989 L207.201475,210.83914 L206.220862,210.221338 L207.800815,207.713541 L206.402235,206.832413 L204.599469,209.693874 C204.5527,208.698785 204.766844,207.396492 205.089337,206.207373 C204.568802,206.463293 203.564708,206.773865 203.030509,206.908895 C202.812185,208.253467 202.747379,210.031604 202.980463,211.301268 L204.194353,210.336899 L202.209284,213.48772 L202.179881,212.144271 C201.07981,212.821046 199.724297,213.404258 198.877424,213.679144 L198.591572,215.879427 C199.436678,215.536059 200.663586,214.871824 201.753528,214.211123 L199.829227,217.265491 L201.227806,218.146619 Z M209.793893,220.803716 L209.07049,220.347961 L210.002257,218.869004 L210.72566,219.324759 L209.793893,220.803716 Z M205.52468,218.989841 C205.251227,219.423883 204.979541,219.926408 204.897873,220.234257 C205.28192,220.408844 205.8428,220.694838 206.264946,220.915884 C206.346614,220.608035 206.664759,220.067411 206.85719,219.761975 L207.900363,218.106186 C208.113049,217.768597 208.314317,217.805574 208.748359,218.079027 L208.844813,218.139795 L206.900255,221.226314 L209.954624,223.150615 L212.841076,218.569063 L209.722405,216.60425 C208.339902,215.733251 207.580645,215.72649 206.659006,217.189372 L205.52468,218.989841 Z M213.030642,215.701797 L212.307239,215.246041 L213.228878,213.78316 L213.952281,214.238915 L213.030642,215.701797 Z M211.299803,212.567811 L212.071433,213.053951 L210.147132,216.108319 L213.2015,218.03262 L216.057568,213.499295 L212.987125,211.564866 C212.3441,211.15975 212.242989,210.71429 212.27643,210.376057 C211.786923,210.404505 210.903242,210.274442 210.466787,210.11175 C210.435113,210.518466 210.213422,211.119857 208.696314,214.632871 C209.013646,214.877708 209.543496,215.391173 209.83816,215.778923 L211.299803,212.567811 Z M214.507574,211.040654 C215.382896,211.255275 216.755439,211.536134 217.815953,211.777604 L218.443573,209.747728 C217.377112,209.480054 215.940266,209.158683 215.069125,208.901783 L214.507574,211.040654 Z M210.316185,207.748776 L210.440132,207.445107 L210.551539,207.268275 C211.443891,208.346967 212.486871,209.543014 213.409607,210.57348 L215.749152,206.860011 L214.045136,205.786454 L213.164009,207.185033 C212.143052,206.025317 211.1102,204.813194 210.384552,203.861984 L209.159076,205.807135 C208.189881,204.814768 207.326146,203.619366 206.869126,202.455638 C206.796631,201.893469 206.647938,201.23838 206.424814,200.558856 L203.808165,200.684378 C204.471278,201.663559 205.199816,202.930978 204.977002,203.284642 C204.764316,203.62223 203.869216,203.866732 203.084232,204.29289 C201.66972,205.041039 200.642144,206.279984 199.305261,208.401966 C198.120296,210.282814 196.440187,213.199094 195.690077,214.567934 C196.184241,214.924178 196.924197,215.817034 197.306954,216.35011 C198.173941,214.403669 199.815952,211.44093 200.980661,209.592233 C202.155497,207.727461 203.203974,206.27712 204.561899,205.583146 C205.155098,205.28318 205.624994,205.107638 205.984128,204.929684 C206.787096,206.22154 207.936657,207.462279 209.17737,208.558337 L210.316185,207.748776 Z" id="SOLDA-PICKS-WEEKLY-•" fill="#FF5E6F" sketch:type="MSShapeGroup"></path>
        </g>
    </g>
</svg>