<?xml version="1.0" encoding="UTF-8" standalone="no"?>
<svg width="231px" height="190px" viewBox="0 0 231 190" version="1.1" xmlns="http://www.w3.org/2000/svg" xmlns:xlink="http://www.w3.org/1999/xlink" xmlns:sketch="http://www.bohemiancoding.com/sketch/ns">
    <!-- Generator: Sketch Beta 3.4 (14861) - http://www.bohemiancoding.com/sketch -->
    <title>logo</title>
    <desc>Created with Sketch Beta.</desc>
    <defs></defs>
    <g id="Page-1" stroke="none" stroke-width="1" fill="none" fill-rule="evenodd" sketch:type="MSPage">
        <g id="header" sketch:type="MSArtboardGroup" transform="translate(-37.000000, -34.000000)" fill="#000000">
            <path d="M80.872,201.972 L78.052,201.972 C77.932,201.672 77.752,201.288 77.56,201 L76.636,201.276 C76.744,201.492 76.864,201.732 76.96,201.972 L74.008,201.972 L74.008,202.8 L80.872,202.8 L80.872,201.972 Z M72.616,202.788 C72.508,202.368 72.22,201.696 71.932,201.204 L71.128,201.492 C71.404,201.996 71.68,202.692 71.776,203.112 L72.616,202.788 Z M73.816,203.136 L70,203.136 L70,204.036 L73.816,204.036 L73.816,203.136 Z M73.468,204.744 L70.48,204.744 L70.48,205.62 L73.468,205.62 L73.468,204.744 Z M70.48,207.216 L73.468,207.216 L73.468,206.34 L70.48,206.34 L70.48,207.216 Z M72.676,208.848 L72.676,210.6 L71.212,210.6 L71.212,208.848 L72.676,208.848 Z M73.504,207.972 L70.408,207.972 L70.408,212.004 L71.212,212.004 L71.212,211.476 L73.504,211.476 L73.504,207.972 Z M76.624,207.792 L78.196,207.792 L78.196,208.32 L76.624,208.32 L76.624,207.792 Z M76.624,206.556 L78.196,206.556 L78.196,207.072 L76.624,207.072 L76.624,206.556 Z M75.268,203.844 L76.3,203.844 L76.3,204.624 L75.268,204.624 L75.268,203.844 Z M78.556,203.844 L79.636,203.844 L79.636,204.624 L78.556,204.624 L78.556,203.844 Z M80.236,209.208 C79.912,209.424 79.384,209.748 78.94,210 C78.712,209.724 78.508,209.424 78.352,209.112 L81.004,209.112 L81.004,208.32 L79.192,208.32 L79.192,207.792 L80.548,207.792 L80.548,207.072 L79.192,207.072 L79.192,206.556 L80.74,206.556 L80.74,205.848 L79.192,205.848 L79.192,205.248 L80.512,205.248 L80.512,203.208 L77.728,203.208 L77.728,205.248 L78.196,205.248 L78.196,205.848 L76.624,205.848 L76.624,205.248 L77.176,205.248 L77.176,203.208 L74.44,203.208 L74.44,205.248 L75.628,205.248 L75.628,205.848 L74.224,205.848 L74.224,206.556 L75.628,206.556 L75.628,207.072 L74.416,207.072 L74.416,207.792 L75.628,207.792 L75.628,208.32 L73.864,208.32 L73.864,209.112 L76.012,209.112 C75.34,209.52 74.476,209.844 73.636,210.06 C73.804,210.228 74.08,210.6 74.176,210.78 C74.584,210.636 75.028,210.48 75.436,210.288 L75.436,210.42 C75.436,210.984 75.124,211.32 74.92,211.464 C75.076,211.62 75.304,211.944 75.388,212.136 C75.604,212.016 75.94,211.896 77.944,211.476 C77.92,211.26 77.896,210.9 77.908,210.636 L76.3,210.936 L76.3,209.832 C76.648,209.604 76.984,209.376 77.248,209.112 L77.416,209.112 C77.992,210.564 79.012,211.62 80.584,212.112 C80.704,211.86 80.968,211.5 81.172,211.308 C80.524,211.152 79.96,210.876 79.504,210.516 C79.936,210.312 80.428,210.048 80.824,209.772 L80.236,209.208 Z M84.58,201.192 C83.932,202.944 82.864,204.696 81.736,205.812 C81.916,206.064 82.24,206.664 82.348,206.94 C82.696,206.568 83.044,206.148 83.38,205.68 L83.38,212.136 L84.436,212.136 L84.436,204.024 C84.892,203.208 85.3,202.356 85.624,201.504 L84.58,201.192 Z M86.764,206.328 C86.464,207.708 85.924,209.088 85.216,209.976 C85.468,210.108 85.96,210.396 86.164,210.576 C86.872,209.592 87.496,208.08 87.856,206.532 L86.764,206.328 Z M91.78,204.396 C91.708,204.972 91.624,205.536 91.54,205.944 L92.488,206.124 C92.644,205.452 92.86,204.396 93.016,203.484 L92.236,203.328 L92.056,203.364 L87.52,203.364 C87.76,202.74 87.964,202.092 88.132,201.432 L87.028,201.192 C86.62,202.884 85.936,204.576 85.036,205.632 C85.3,205.8 85.744,206.16 85.948,206.364 C86.356,205.824 86.74,205.152 87.1,204.396 L88.72,204.396 L88.72,210.852 C88.72,211.008 88.66,211.044 88.504,211.044 C88.348,211.056 87.832,211.056 87.292,211.044 C87.46,211.344 87.64,211.848 87.688,212.16 C88.444,212.16 88.984,212.124 89.344,211.944 C89.704,211.752 89.824,211.428 89.824,210.852 L89.824,204.396 L91.78,204.396 Z M90.496,206.544 C91.12,207.792 91.672,209.46 91.84,210.54 L92.908,210.156 C92.716,209.076 92.152,207.468 91.492,206.22 L90.496,206.544 Z M96.364,211.74 C96.544,211.032 96.76,209.94 96.88,209.22 L96.148,208.956 C96.04,209.664 95.788,210.744 95.584,211.428 L96.364,211.74 Z M98.452,211.248 C98.104,211.248 98.044,211.2 98.044,210.912 L98.044,208.908 L97.144,208.908 L97.144,210.924 C97.144,211.776 97.372,212.028 98.332,212.028 L99.724,212.028 C100.504,212.028 100.744,211.668 100.84,210.264 C100.588,210.204 100.228,210.06 100.048,209.916 C100.012,211.08 99.94,211.248 99.628,211.248 L98.452,211.248 Z M99.784,209.784 C99.58,209.34 99.124,208.608 98.764,208.068 L98.044,208.404 C98.404,208.968 98.824,209.736 99.04,210.18 L99.784,209.784 Z M100.324,209.1 C100.72,209.88 101.176,210.948 101.404,211.572 L102.208,211.2 C101.98,210.6 101.476,209.568 101.08,208.812 L100.324,209.1 Z M99.436,207.18 L97.396,207.18 L97.396,206.016 L99.436,206.016 L99.436,207.18 Z M103.444,203.664 C103.204,204.348 102.88,204.972 102.484,205.548 C102.4,204.804 102.352,204.012 102.316,203.208 L104.848,203.208 L104.848,202.308 L103.78,202.308 L104.26,201.912 C103.948,201.672 103.372,201.3 102.94,201.048 L102.292,201.528 C102.628,201.756 103.084,202.056 103.396,202.308 L102.292,202.308 C102.28,201.912 102.28,201.528 102.28,201.144 L101.2,201.144 C101.2,201.528 101.212,201.912 101.224,202.308 L95.02,202.308 L95.02,204.732 C95.02,206.664 94.924,209.544 93.928,211.584 C94.156,211.68 94.636,211.992 94.804,212.172 C95.872,210.012 96.04,206.772 96.04,204.732 L96.04,204.648 L100.816,204.648 L100.816,203.868 L96.04,203.868 L96.04,203.208 L101.26,203.208 C101.308,204.408 101.404,205.584 101.524,206.652 C101.164,207.012 100.768,207.336 100.324,207.6 L100.324,205.224 L96.472,205.224 L96.472,207.972 L100.18,207.972 C100.396,208.164 100.648,208.416 100.768,208.572 C101.092,208.356 101.404,208.128 101.704,207.864 C102.112,210.348 102.784,212.088 103.792,212.088 C104.644,212.088 104.956,211.56 105.112,209.664 C104.836,209.544 104.5,209.316 104.272,209.052 C104.224,210.408 104.116,211.02 103.936,211.02 C103.48,211.02 102.976,209.364 102.64,206.94 C103.384,206.088 104.008,205.056 104.452,203.916 L103.444,203.664 Z M112.54,202.536 C112.408,202.404 112.228,202.248 112.012,202.092 C112.252,201.876 112.456,201.636 112.624,201.396 L111.988,201.216 C111.856,201.396 111.688,201.576 111.496,201.744 C111.268,201.612 111.052,201.48 110.836,201.372 L110.404,201.768 C110.596,201.876 110.8,201.984 111.004,202.116 C110.716,202.32 110.416,202.488 110.104,202.62 C110.26,202.728 110.512,202.98 110.608,203.088 C110.908,202.932 111.244,202.728 111.532,202.488 C111.76,202.668 111.952,202.836 112.096,202.98 L112.54,202.536 Z M107.404,205.644 L115.588,205.644 L115.588,206.64 L116.608,206.64 L116.608,204.912 L115.444,204.912 C115.528,203.976 115.588,202.632 115.624,201.552 L113.008,201.552 L113.008,202.26 L114.604,202.26 L114.58,202.716 L113.14,202.716 L113.14,203.352 L114.556,203.352 L114.52,203.808 L113.092,203.808 L113.092,204.444 L114.472,204.444 L114.436,204.912 L110.788,204.912 C111.076,204.744 111.364,204.552 111.64,204.336 C111.88,204.528 112.108,204.72 112.264,204.888 L112.732,204.444 C112.576,204.288 112.36,204.108 112.108,203.916 C112.36,203.676 112.564,203.436 112.744,203.172 L112.096,203.004 C111.952,203.184 111.796,203.376 111.592,203.568 C111.352,203.412 111.124,203.268 110.896,203.148 L110.452,203.556 C110.656,203.664 110.884,203.808 111.1,203.952 C110.776,204.18 110.44,204.384 110.08,204.552 C110.2,204.636 110.368,204.78 110.5,204.912 L108.64,204.912 L108.616,204.444 L109.972,204.444 L109.972,203.808 L108.58,203.808 L108.544,203.352 L109.924,203.352 L109.924,202.716 L108.508,202.716 L108.484,202.332 C109.048,202.14 109.696,201.888 110.2,201.612 L109.588,201.144 C109.06,201.42 108.136,201.828 107.476,202.044 L107.488,202.056 L107.656,204.912 L106.42,204.912 L106.42,206.64 L107.404,206.64 L107.404,205.644 Z M109.156,208.944 L113.764,208.944 L113.764,209.46 L109.156,209.46 L109.156,208.944 Z M109.156,207.84 L113.764,207.84 L113.764,208.344 L109.156,208.344 L109.156,207.84 Z M109.156,206.748 L113.764,206.748 L113.764,207.252 L109.156,207.252 L109.156,206.748 Z M113.824,211.128 C113.308,211.128 113.212,211.104 113.212,210.828 L113.212,210.072 L114.868,210.072 L114.868,206.124 L108.1,206.124 L108.1,210.072 L109.444,210.072 C109.096,210.804 108.28,211.128 106,211.296 C106.168,211.512 106.408,211.896 106.48,212.148 C109.168,211.86 110.152,211.272 110.572,210.072 L112.132,210.072 L112.132,210.828 C112.132,211.752 112.444,212.004 113.704,212.004 L115.624,212.004 C116.584,212.004 116.872,211.68 116.992,210.384 C116.716,210.336 116.284,210.204 116.068,210.048 C116.008,210.996 115.936,211.128 115.504,211.128 L113.824,211.128 Z M125.26,208.74 L126.376,208.74 L126.376,202.056 L129.124,202.056 L129.124,201.024 L125.26,201.024 L125.26,208.74 Z M132.952,208.272 L138.064,208.272 L138.064,208.98 L132.952,208.98 L132.952,208.272 Z M138.064,204.396 L138.064,205.056 L132.952,205.056 L132.952,204.396 L138.064,204.396 Z M138.064,206.988 L138.064,207.588 L132.952,207.588 L132.952,206.988 L138.064,206.988 Z M138.064,206.316 L132.952,206.316 L132.952,205.74 L138.064,205.74 L138.064,206.316 Z M140.8,208.98 L139.18,208.98 L139.18,203.652 L135.832,203.652 C135.856,203.448 135.904,203.232 135.952,203.004 L140.5,203.004 L140.5,202.056 L136.12,202.056 C136.168,201.78 136.216,201.504 136.264,201.228 L135.088,201.12 C135.064,201.396 135.04,201.732 134.992,202.056 L130.552,202.056 L130.552,203.004 L134.86,203.004 C134.812,203.232 134.776,203.448 134.74,203.652 L131.884,203.652 L131.884,208.98 L130.24,208.98 L130.24,209.904 L140.8,209.904 L140.8,208.98 Z M133.612,210.024 C132.868,210.504 131.404,211.08 130.204,211.38 C130.444,211.584 130.792,211.944 130.972,212.148 C132.148,211.836 133.636,211.248 134.56,210.66 L133.612,210.024 Z M136.492,210.696 C137.812,211.116 139.156,211.68 139.972,212.124 L140.872,211.368 C140.008,210.936 138.52,210.36 137.188,209.964 L136.492,210.696 Z M152.644,203.088 L152.644,201.948 L142.372,201.948 L142.372,203.088 L147.436,203.088 C146.284,205.044 144.316,206.964 142.036,208.08 C142.276,208.32 142.624,208.776 142.804,209.076 C144.352,208.26 145.744,207.12 146.896,205.836 L146.896,212.136 L148.108,212.136 L148.108,204.324 C148.396,203.916 148.648,203.496 148.9,203.088 L152.644,203.088 Z M148.156,205.632 C149.524,206.604 151.3,208.032 152.104,208.956 L153.04,208.092 C152.164,207.168 150.34,205.812 148.996,204.912 L148.156,205.632 Z M163.684,202.62 C163.612,203.46 163.528,203.832 163.396,203.964 C163.324,204.06 163.228,204.072 163.084,204.072 C162.916,204.072 162.544,204.06 162.148,204.024 C162.28,204.276 162.388,204.66 162.412,204.936 C162.868,204.96 163.324,204.96 163.552,204.936 C163.864,204.912 164.056,204.84 164.248,204.624 C164.5,204.348 164.62,203.652 164.728,202.056 C164.752,201.936 164.752,201.672 164.752,201.672 L159.64,201.672 L159.64,202.62 L161.02,202.62 C160.768,203.532 160.156,204.144 159.196,204.516 C159.4,204.696 159.76,205.092 159.892,205.296 C161.032,204.756 161.776,203.916 162.088,202.62 L163.684,202.62 Z M155.248,205.26 L156.268,205.26 L156.268,206.652 L155.248,206.652 L155.248,205.26 Z M158.176,206.652 L157.12,206.652 L157.12,205.26 L158.176,205.26 L158.176,206.652 Z M157.192,207.552 L159.1,207.552 L159.1,204.348 L157.192,204.348 L157.192,203.4 L159.304,203.4 L159.304,202.416 L157.192,202.416 L157.192,201.204 L156.196,201.204 L156.196,202.416 L154.132,202.416 L154.132,203.4 L156.196,203.4 L156.196,204.348 L154.372,204.348 L154.372,207.552 L155.908,207.552 C155.416,208.572 154.6,209.688 153.868,210.312 C154.024,210.576 154.264,211.02 154.372,211.332 C155.02,210.732 155.668,209.772 156.196,208.788 L156.196,212.124 L157.192,212.124 L157.192,208.836 C157.708,209.328 158.32,209.94 158.608,210.288 L159.22,209.352 C158.944,209.1 157.696,208.176 157.192,207.84 L157.192,207.552 Z M160.744,208.68 L163.468,208.68 L163.468,209.352 L160.744,209.352 L160.744,208.68 Z M160.744,207.336 L163.468,207.336 L163.468,207.996 L160.744,207.996 L160.744,207.336 Z M160.744,206.028 L163.468,206.028 L163.468,206.676 L160.744,206.676 L160.744,206.028 Z M164.512,210.06 L164.512,205.308 L159.748,205.308 L159.748,210.06 L160.744,210.06 C160.288,210.54 159.424,211.116 158.656,211.428 C158.884,211.62 159.208,211.944 159.388,212.148 C160.192,211.8 161.128,211.164 161.716,210.564 L160.876,210.06 L163.228,210.06 L162.472,210.588 C163.12,211.044 163.912,211.716 164.308,212.136 L165.136,211.512 C164.74,211.104 163.936,210.48 163.3,210.06 L164.512,210.06 Z M173.848,208.356 C175.12,208.356 176.248,207.624 177.028,206.208 L175.972,205.632 C175.492,206.544 174.736,207.156 173.86,207.156 C173.008,207.156 172.528,206.808 171.94,206.22 C171.1,205.368 170.284,204.924 169.168,204.924 C167.896,204.924 166.768,205.656 165.988,207.072 L167.044,207.648 C167.524,206.736 168.28,206.124 169.156,206.124 C170.008,206.124 170.488,206.472 171.076,207.06 C171.916,207.912 172.732,208.356 173.848,208.356 L173.848,208.356 Z M181.756,204.54 L180.64,204.54 L180.64,211.224 L177.892,211.224 L177.892,212.256 L181.756,212.256 L181.756,204.54 Z M191.56,209.928 L191.56,207.276 L193.792,207.276 L193.792,209.928 L191.56,209.928 Z M193.792,204.024 L193.792,206.304 L191.56,206.304 L191.56,204.024 L193.792,204.024 Z M197.188,202.992 C197.38,202.464 197.536,201.912 197.68,201.36 L196.6,201.108 C196.24,202.692 195.604,204.288 194.812,205.32 L194.812,203.052 L192.892,203.052 C193.084,202.548 193.312,201.912 193.516,201.312 L192.304,201.108 C192.232,201.684 192.052,202.476 191.884,203.052 L190.54,203.052 L190.54,211.824 L191.56,211.824 L191.56,210.912 L194.812,210.912 L194.812,205.404 C195.088,205.56 195.508,205.86 195.688,206.028 C196.072,205.476 196.444,204.78 196.78,204.012 L199.612,204.012 C199.456,208.536 199.3,210.348 198.916,210.744 C198.784,210.912 198.652,210.948 198.412,210.948 C198.112,210.948 197.416,210.936 196.648,210.876 C196.852,211.188 196.984,211.656 197.008,211.956 C197.692,211.992 198.4,212.004 198.82,211.956 C199.276,211.896 199.564,211.788 199.864,211.392 C200.344,210.792 200.488,208.932 200.656,203.52 C200.668,203.376 200.668,202.992 200.668,202.992 L197.188,202.992 Z M198.724,208.404 C198.364,207.696 197.548,206.556 196.912,205.728 L196.036,206.22 C196.672,207.084 197.452,208.26 197.788,208.992 L198.724,208.404 Z M203.5,204.432 C203.392,203.76 203.14,202.716 202.876,201.924 L202.084,202.104 C202.324,202.908 202.564,203.964 202.66,204.648 L203.5,204.432 Z M206.5,208.728 C206.32,208.404 205.504,207.06 205.276,206.76 L204.7,207.168 L204.7,206.16 L206.104,206.16 L206.104,205.116 L204.7,205.116 L204.7,201.144 L203.728,201.144 L203.728,205.116 L202.06,205.116 L202.06,206.16 L203.728,206.16 L203.728,206.976 L203.032,206.736 C202.84,207.744 202.348,208.968 201.868,209.616 C202.036,209.916 202.252,210.42 202.36,210.744 C202.984,209.94 203.464,208.38 203.728,207.096 L203.728,212.148 L204.7,212.148 L204.7,207.204 C204.976,207.696 205.54,208.968 205.756,209.544 L206.5,208.728 Z M207.928,209.508 C207.952,209.256 207.964,208.992 207.964,208.764 L211.336,208.764 L211.336,209.508 L207.928,209.508 Z M211.336,207.264 L211.336,207.996 L207.964,207.996 L207.964,207.264 L211.336,207.264 Z M212.38,206.412 L206.956,206.412 L206.956,208.572 C206.956,209.508 206.884,210.684 206.176,211.548 C206.392,211.668 206.8,212.064 206.956,212.268 C207.436,211.716 207.7,210.996 207.82,210.264 L211.336,210.264 L211.336,211.056 C211.336,211.188 211.288,211.236 211.132,211.236 C210.988,211.248 210.496,211.248 209.992,211.224 C210.124,211.476 210.256,211.86 210.304,212.124 C211.048,212.136 211.588,212.124 211.924,211.968 C212.272,211.824 212.38,211.56 212.38,211.068 L212.38,206.412 Z M210.136,204.96 L210.136,204.288 L212.656,204.288 L212.656,203.496 L210.136,203.496 L210.136,202.884 L212.884,202.884 L212.884,202.068 L210.136,202.068 L210.136,201.144 L209.056,201.144 L209.056,202.068 L206.476,202.068 L206.476,202.236 L205.54,201.924 C205.384,202.68 205.048,203.784 204.784,204.456 L205.492,204.708 C205.792,204.096 206.14,203.1 206.476,202.272 L206.476,202.884 L209.056,202.884 L209.056,203.496 L206.764,203.496 L206.764,204.288 L209.056,204.288 L209.056,204.96 L206.32,204.96 L206.32,205.8 L213.016,205.8 L213.016,204.96 L210.136,204.96 Z M223.576,202.296 L223.576,202.98 L222.124,202.98 L222.124,202.296 L223.576,202.296 Z M223.864,205.2 C224.188,205.2 224.524,205.188 224.692,205.128 C224.656,204.924 224.632,204.588 224.608,204.348 C224.428,204.396 224.056,204.42 223.828,204.42 L222.436,204.42 C222.16,204.42 222.124,204.3 222.124,203.976 L222.124,203.712 L224.536,203.712 L224.536,201.576 L221.224,201.576 L221.224,203.964 C221.224,204.852 221.452,205.2 222.376,205.2 L223.864,205.2 Z M219.784,202.284 L219.784,202.968 L218.344,202.968 L218.344,202.284 L219.784,202.284 Z M218.344,204.456 L218.344,203.7 L220.72,203.7 L220.72,201.564 L217.456,201.564 L217.456,203.952 C217.456,204.396 217.276,204.588 217.12,204.672 C217.252,204.864 217.432,205.284 217.492,205.512 C217.696,205.404 218.068,205.32 220.42,204.924 C220.456,204.732 220.528,204.372 220.612,204.12 L218.344,204.456 Z M220.096,206.988 L221.764,206.988 L221.764,207.936 L220.096,207.936 L220.096,206.988 Z M219.592,208.788 L222.076,208.788 L221.452,209.232 C222.244,209.64 223.096,210.192 223.588,210.6 L224.56,210.12 C224.032,209.712 223.12,209.184 222.28,208.788 L224.86,208.788 L224.86,207.936 L222.796,207.936 L222.796,206.988 L224.368,206.988 L224.368,206.148 L222.796,206.148 L222.796,205.392 L221.764,205.392 L221.764,206.148 L220.096,206.148 L220.096,205.392 L219.076,205.392 L219.076,206.148 L217.54,206.148 L217.54,206.988 L219.076,206.988 L219.076,207.936 L217.084,207.936 L217.084,208.788 L219.496,208.788 C218.956,209.232 218.104,209.664 217.276,209.964 C217.528,210.12 217.912,210.444 218.104,210.648 C218.908,210.264 219.88,209.688 220.504,209.1 L219.592,208.788 Z M216.508,203.172 C216.34,202.656 216.004,201.828 215.764,201.192 L214.756,201.468 C214.984,202.104 215.308,202.968 215.476,203.508 L216.508,203.172 Z M216.376,206.604 L216.208,206.64 L215.788,206.64 C216.088,205.812 216.424,204.828 216.688,203.976 L214.096,203.976 L214.096,204.984 L215.296,204.984 C214.996,205.92 214.648,206.892 214.348,207.6 L215.86,207.6 C215.644,208.512 215.272,209.46 214.804,210.12 L214.816,210.132 C214.516,210.396 214.204,210.756 213.88,211.176 L214.648,212.208 C214.96,211.476 215.38,210.696 215.644,210.696 C215.908,210.696 216.34,211.116 216.832,211.392 C217.696,211.896 218.716,212.028 220.3,212.028 C221.704,212.028 223.912,211.956 224.836,211.896 C224.848,211.596 225.028,211.044 225.16,210.744 C223.84,210.912 221.812,211.02 220.348,211.02 C218.944,211.02 217.84,210.948 217.024,210.444 C216.58,210.18 216.328,209.976 216.088,209.844 C216.52,208.968 216.832,207.912 217.024,206.88 L216.376,206.604 Z M232.804,208.656 L232.804,209.844 L230.176,209.844 L230.176,208.656 L232.804,208.656 Z M233.716,210.648 L233.716,207.852 L229.24,207.852 L229.24,211.176 L230.176,211.176 L230.176,210.648 L233.716,210.648 Z M227.956,205.812 L229.84,205.812 C229.696,206.592 229.264,207 227.956,207.24 L227.956,205.812 Z M236.776,202.356 L232.288,202.356 C232.168,201.972 231.976,201.468 231.808,201.06 L230.74,201.324 C230.86,201.636 231.004,202.02 231.112,202.356 L226.276,202.356 L226.276,203.304 L229.588,203.304 L228.784,203.58 C229,203.976 229.3,204.552 229.444,204.912 L226.9,204.912 L226.9,212.124 L227.956,212.124 L227.956,207.252 C228.16,207.432 228.376,207.768 228.46,208.008 C230.104,207.648 230.644,206.988 230.824,205.812 L231.964,205.812 L231.964,206.376 C231.964,207.156 232.12,207.528 232.948,207.528 L234.064,207.528 C234.328,207.528 234.64,207.516 234.796,207.468 C234.76,207.216 234.748,206.952 234.724,206.688 C234.556,206.736 234.22,206.748 234.04,206.748 L233.188,206.748 C232.972,206.748 232.948,206.652 232.948,206.388 L232.948,205.812 L235.132,205.812 L235.132,211.008 C235.132,211.188 235.06,211.248 234.856,211.248 C234.688,211.26 234.004,211.26 233.308,211.236 C233.452,211.476 233.596,211.824 233.644,212.088 C234.64,212.088 235.264,212.076 235.648,211.932 C236.032,211.788 236.164,211.56 236.164,211.008 L236.164,204.912 L233.512,204.912 C233.8,204.504 234.088,204.024 234.352,203.568 L233.236,203.328 C233.056,203.784 232.732,204.444 232.456,204.912 L229.588,204.912 L230.464,204.576 C230.308,204.252 230.008,203.712 229.768,203.304 L236.776,203.304 L236.776,202.356 Z M245.764,204.66 L241.264,204.66 L241.264,202.704 L245.764,202.704 L245.764,204.66 Z M246.904,201.636 L240.196,201.636 L240.196,205.728 L246.904,205.728 L246.904,201.636 Z M241.744,207.96 L241.744,210.456 L239.56,210.456 L239.56,207.96 L241.744,207.96 Z M238.504,212.148 L239.56,212.148 L239.56,211.524 L241.744,211.524 L241.744,212.064 L242.848,212.064 L242.848,206.892 L238.504,206.892 L238.504,212.148 Z M245.092,210.456 L245.092,207.96 L247.468,207.96 L247.468,210.456 L245.092,210.456 Z M244.024,206.892 L244.024,212.148 L245.092,212.148 L245.092,211.524 L247.468,211.524 L247.468,212.088 L248.584,212.088 L248.584,206.892 L244.024,206.892 Z M253.672,206.652 C253.672,207.684 254.512,208.524 255.544,208.524 C256.588,208.524 257.416,207.684 257.416,206.652 C257.416,205.62 256.588,204.78 255.544,204.78 C254.512,204.78 253.672,205.62 253.672,206.652 L253.672,206.652 Z M254.392,206.652 C254.392,206.016 254.92,205.5 255.544,205.5 C256.18,205.5 256.696,206.016 256.696,206.652 C256.696,207.288 256.18,207.804 255.544,207.804 C254.92,207.804 254.392,207.288 254.392,206.652 L254.392,206.652 Z" id="讓你感覺「真不賴～」的精選商品。" fill-opacity="0.38" sketch:type="MSShapeGroup"></path>
            <rect id="Rectangle-1" fill-opacity="0.87" sketch:type="MSShapeGroup" transform="translate(48.366559, 45.673267) rotate(-50.000000) translate(-48.366559, -45.673267) " x="37" y="41.1336634" width="22.733119" height="9.07920792" rx="3"></rect>
            <path d="M68.550869,99.9715173 C69.821619,101.242267 73.799619,104.225767 80.982119,104.225767 C89.103869,104.225767 94.021119,98.4797673 94.021119,92.7890173 C94.021119,85.2750173 87.170119,81.9047673 82.860619,80.1920173 C78.495869,78.4240173 76.838369,76.8770173 76.838369,74.8327673 C76.838369,73.3410173 78.330119,72.0150173 80.319119,72.0150173 C83.689369,72.0150173 87.722619,75.0537673 88.219869,75.3300173 C88.717119,75.7167673 89.711619,75.2195173 90.098369,74.6117673 L92.916119,70.3575173 C93.137119,69.9707673 93.247619,68.9762673 92.584619,68.5895173 C90.927119,67.3740173 86.507119,64.4457673 80.761119,64.4457673 C72.252619,64.4457673 67.998369,69.9707673 67.998369,75.4405173 C67.998369,82.0705173 73.965369,85.7722673 78.716869,87.6507673 C82.473869,89.1425173 84.407619,90.9105173 84.407619,93.2310173 C84.407619,95.1647673 82.805369,96.5460173 80.595369,96.5460173 C76.948869,96.5460173 72.970869,93.6177673 72.749869,93.5072673 C72.363119,93.2310173 71.313369,93.1205173 70.871369,93.8387673 L68.274619,98.4245173 C67.832619,99.1980173 67.998369,99.4190173 68.550869,99.9715173 L68.550869,99.9715173 Z M97.943869,84.3910173 C97.943869,95.4410173 106.728619,104.225767 117.778619,104.225767 C128.828619,104.225767 137.668619,95.4410173 137.668619,84.3910173 C137.668619,73.3410173 128.828619,64.4457673 117.778619,64.4457673 C106.728619,64.4457673 97.943869,73.3410173 97.943869,84.3910173 L97.943869,84.3910173 Z M106.783869,84.3910173 C106.783869,78.3135173 111.756369,73.2857673 117.778619,73.2857673 C123.856119,73.2857673 128.828619,78.3135173 128.828619,84.3910173 C128.828619,90.4132673 123.856119,95.3857673 117.778619,95.3857673 C111.756369,95.3857673 106.783869,90.4132673 106.783869,84.3910173 L106.783869,84.3910173 Z M144.353869,102.623517 C144.353869,103.176017 144.795869,103.673267 145.403619,103.673267 L166.177619,103.673267 C166.785369,103.673267 167.227369,103.176017 167.227369,102.623517 L167.227369,96.6012673 C167.227369,96.0487673 166.785369,95.5515173 166.177619,95.5515173 L153.028119,95.5515173 L153.028119,66.0480173 C153.028119,65.4955173 152.530869,64.9982673 151.978369,64.9982673 L145.403619,64.9982673 C144.795869,64.9982673 144.353869,65.4955173 144.353869,66.0480173 L144.353869,102.623517 Z M172.586619,102.623517 C172.586619,103.176017 173.028619,103.673267 173.581119,103.673267 L187.062119,103.673267 C197.725369,103.673267 206.454869,94.9990173 206.454869,84.2805173 C206.454869,73.6725173 197.725369,64.9982673 187.062119,64.9982673 L173.581119,64.9982673 C173.028619,64.9982673 172.586619,65.4955173 172.586619,66.0480173 L172.586619,102.623517 Z M181.205619,95.4962673 L181.205619,73.1200173 L186.509619,73.1200173 C192.752869,73.1200173 197.283369,78.0372673 197.283369,84.2805173 C197.283369,90.5790173 192.752869,95.4962673 186.509619,95.4962673 L181.205619,95.4962673 Z M209.162119,103.673267 L215.239619,103.673267 C216.344619,103.673267 216.952369,103.010267 217.228619,102.347267 L219.217619,97.9272673 L234.245619,97.9272673 L236.234619,102.292017 C236.731869,103.341767 237.173869,103.673267 238.168369,103.673267 L244.301119,103.673267 C245.129869,103.673267 245.571869,102.955017 245.240369,102.236767 L227.947119,65.0535173 C227.781369,64.7220173 227.394619,64.4457673 227.007869,64.4457673 L226.455369,64.4457673 C226.068619,64.4457673 225.681869,64.7220173 225.516119,65.0535173 L208.222869,102.236767 C207.891369,102.955017 208.333369,103.673267 209.162119,103.673267 L209.162119,103.673267 Z M222.532619,90.4132673 L226.676369,81.2970173 L226.731619,81.2970173 L230.930619,90.4132673 L222.532619,90.4132673 Z M70.484619,162.423517 C70.484619,162.976017 70.926619,163.473267 71.534369,163.473267 L78.053869,163.473267 C78.606369,163.473267 79.103619,162.976017 79.103619,162.423517 L79.103619,149.439767 L84.904869,149.439767 C91.645369,149.439767 97.225619,143.859517 97.225619,137.008517 C97.225619,130.323267 91.645369,124.798267 84.849619,124.798267 L71.534369,124.798267 C70.926619,124.798267 70.484619,125.295517 70.484619,125.848017 L70.484619,162.423517 Z M79.103619,141.373267 L79.103619,132.920017 L84.352369,132.920017 C86.728119,132.920017 88.717119,134.688017 88.717119,137.008517 C88.717119,139.494767 86.728119,141.373267 84.352369,141.373267 L79.103619,141.373267 Z M103.026869,162.423517 C103.026869,162.976017 103.524119,163.473267 104.076619,163.473267 L110.706619,163.473267 C111.259119,163.473267 111.756369,162.976017 111.756369,162.423517 L111.756369,125.848017 C111.756369,125.295517 111.259119,124.798267 110.706619,124.798267 L104.076619,124.798267 C103.524119,124.798267 103.026869,125.295517 103.026869,125.848017 L103.026869,162.423517 Z M118.441619,144.191017 C118.441619,155.241017 127.336869,164.025767 138.386869,164.025767 C143.304119,164.025767 148.055619,162.313017 151.812619,158.666517 C152.199369,158.279767 152.254619,157.561517 151.867869,157.174767 L147.558369,152.589017 C147.226869,152.202267 146.508619,152.202267 146.121869,152.533767 C144.132869,154.246517 141.315119,155.185767 138.718369,155.185767 C132.475119,155.185767 127.834119,150.102767 127.834119,143.970017 C127.834119,137.782017 132.419869,132.588517 138.663119,132.588517 C141.370369,132.588517 144.077619,133.583017 146.121869,135.406267 C146.508619,135.793017 147.116369,135.793017 147.503119,135.406267 L151.812619,130.931017 C152.254619,130.489017 152.254619,129.826017 151.757369,129.384017 C148.000369,125.958517 143.911869,124.245767 138.386869,124.245767 C127.336869,124.245767 118.441619,133.141017 118.441619,144.191017 L118.441619,144.191017 Z M158.442619,162.147267 C158.442619,162.865517 158.995119,163.473267 159.768619,163.473267 L166.232869,163.473267 C166.951119,163.473267 167.558869,162.865517 167.558869,162.147267 L167.558869,145.682767 L180.321619,163.031267 C180.432119,163.197017 180.929369,163.418017 181.316119,163.418017 L188.940619,163.418017 C189.990369,163.418017 190.598119,162.202517 189.990369,161.373767 L175.901619,143.030767 L188.830119,126.842517 C189.437869,126.013767 188.885369,124.798267 187.835619,124.798267 L180.874119,124.798267 C180.542619,124.798267 180.045369,125.074517 179.824369,125.350767 L167.558869,140.655017 L167.558869,126.124267 C167.558869,125.406017 166.951119,124.798267 166.232869,124.798267 L159.768619,124.798267 C158.995119,124.798267 158.442619,125.406017 158.442619,126.124267 L158.442619,162.147267 Z M193.692119,159.771517 C194.962869,161.042267 198.940869,164.025767 206.123369,164.025767 C214.245119,164.025767 219.162369,158.279767 219.162369,152.589017 C219.162369,145.075017 212.311369,141.704767 208.001869,139.992017 C203.637119,138.224017 201.979619,136.677017 201.979619,134.632767 C201.979619,133.141017 203.471369,131.815017 205.460369,131.815017 C208.830619,131.815017 212.863869,134.853767 213.361119,135.130017 C213.858369,135.516767 214.852869,135.019517 215.239619,134.411767 L218.057369,130.157517 C218.278369,129.770767 218.388869,128.776267 217.725869,128.389517 C216.068369,127.174017 211.648369,124.245767 205.902369,124.245767 C197.393869,124.245767 193.139619,129.770767 193.139619,135.240517 C193.139619,141.870517 199.106619,145.572267 203.858119,147.450767 C207.615119,148.942517 209.548869,150.710517 209.548869,153.031017 C209.548869,154.964767 207.946619,156.346017 205.736619,156.346017 C202.090119,156.346017 198.112119,153.417767 197.891119,153.307267 C197.504369,153.031017 196.454619,152.920517 196.012619,153.638767 L193.415869,158.224517 C192.973869,158.998017 193.139619,159.219017 193.692119,159.771517 L193.692119,159.771517 Z" id="SOLDA" fill-opacity="0.87" sketch:type="MSShapeGroup"></path>
        </g>
    </g>
</svg>