<?xml version="1.0" encoding="UTF-8" standalone="no"?>
<svg width="349px" height="339px" viewBox="0 0 349 339" version="1.1" xmlns="http://www.w3.org/2000/svg" xmlns:xlink="http://www.w3.org/1999/xlink" xmlns:sketch="http://www.bohemiancoding.com/sketch/ns">
    <!-- Generator: Sketch 3.3.3 (12072) - http://www.bohemiancoding.com/sketch -->
    <title>pick-vector</title>
    <desc>Created with Sketch.</desc>
    <defs></defs>
    <g id="Page-1" stroke="none" stroke-width="1" fill="none" fill-rule="evenodd" sketch:type="MSPage">
        <g id="pick-vector" sketch:type="MSArtboardGroup">
            <path d="M58.4943831,179.22875 C58.4943831,129.380737 93.2305738,87.6457959 139.81777,76.9091121 C147.427053,75.1554443 155.352497,74.2287501 163.494383,74.2287501 C221.484282,74.2287501 268.494383,121.238851 268.494383,179.22875 C268.494383,237.218649 221.484282,284.22875 163.494383,284.22875 C105.504484,284.22875 58.4943831,237.218649 58.4943831,179.22875 Z" id="Oval-2-Copy-4" fill="#FF5E6F" sketch:type="MSShapeGroup"></path>
            <path d="M48,179.5 C48,124.667186 86.2098098,78.7587504 137.455726,66.9483982 C145.825937,65.0193637 154.543926,64 163.5,64 C227.288889,64 279,115.711111 279,179.5 C279,243.288889 227.288889,295 163.5,295 C99.7111114,295 48,243.288889 48,179.5 Z" id="Oval-2-Copy-5" sketch:type="MSShapeGroup"></path>
            <path d="M88.2016861,158.713312 L137.389287,153.543486 L138.351115,162.694668 L89.163514,167.864493 L88.2016861,158.713312 L88.2016861,158.713312 Z" id="Rectangle-1-Copy-47" fill="#FFFFFF" sketch:type="MSShapeGroup"></path>
            <path d="M94.4521675,230.969192 L116.186224,228.684851 L117.148052,237.836032 L95.4139955,240.120374 L94.4521675,230.969192 L94.4521675,230.969192 Z" id="Rectangle-1-Copy-62" fill="#FFFFFF" sketch:type="MSShapeGroup"></path>
            <path d="M163.296616,218.448656 L181.59898,216.525 L182.560808,225.676181 L164.258444,227.599837 L163.296616,218.448656 L163.296616,218.448656 Z" id="Rectangle-1-Copy-63" fill="#FFFFFF" sketch:type="MSShapeGroup"></path>
            <path d="M212.183208,219.658969 L231.629469,217.615084 L232.591297,226.766266 L213.145036,228.81015 L212.183208,219.658969 L212.183208,219.658969 Z" id="Rectangle-1-Copy-64" fill="#FFFFFF" sketch:type="MSShapeGroup"></path>
            <rect id="Rectangle-1-Copy-65" fill="#FFFFFF" sketch:type="MSShapeGroup" x="108.675606" y="130.884737" width="9.20158888" height="106.968471"></rect>
            <path d="M88.2016861,135.578878 L135.744286,121.946256 L138.280588,130.791391 L90.7379877,144.424012 L88.2016861,135.578878 L88.2016861,135.578878 Z" id="Rectangle-1-Copy-43" fill="#FFFFFF" sketch:type="MSShapeGroup"></path>
            <path d="M81.6000679,188.215445 L143.370544,181.723106 L144.332372,190.874288 L82.5618958,197.366626 L81.6000679,188.215445 L81.6000679,188.215445 Z" id="Rectangle-1-Copy-66" fill="#FFFFFF" sketch:type="MSShapeGroup"></path>
            <rect id="Rectangle-1-Copy-67" fill="#FFFFFF" sketch:type="MSShapeGroup" x="158.472" y="144.999112" width="38.1150124" height="9.20158888"></rect>
            <rect id="Rectangle-1-Copy-70" fill="#FFFFFF" sketch:type="MSShapeGroup" x="224.11255" y="132.346927" width="9.20158888" height="94.316286"></rect>
            <rect id="Rectangle-1-Copy-68" fill="#FFFFFF" sketch:type="MSShapeGroup" x="201.0734" y="126.595934" width="54.1296907" height="9.20158888"></rect>
            <rect id="Rectangle-1-Copy-69" fill="#FFFFFF" sketch:type="MSShapeGroup" x="173.503811" y="118.544544" width="9.20158888" height="106.968471"></rect>
            <rect id="Rectangle-1-Copy-71" fill="#FFFFFF" sketch:type="MSShapeGroup" x="160.751888" y="184.105865" width="33.5552359" height="9.20158888"></rect>
            <rect id="Rectangle-129" opacity="0.5" fill="#FFFFFF" sketch:type="MSShapeGroup" transform="translate(168.000000, 253.500000) rotate(-6.000000) translate(-168.000000, -253.500000) " x="143" y="249" width="50" height="9"></rect>
            <path d="M117.147926,72.1774562 C117.466336,72.2851982 119.396039,72.8814749 121.461327,71.9613091 C123.457194,71.0720733 124.641663,68.9219089 123.868414,67.1863724 C122.971446,65.1731502 121.09037,65.0128189 118.349258,65.2564673 C116.341195,65.4647213 114.926994,65.3251844 114.269733,63.8499785 C113.828981,62.8607227 114.039659,61.1860207 116.174369,60.234925 C117.510732,59.6395236 119.021503,59.9024384 119.089034,59.9139517 C119.308983,59.940759 119.389917,59.842298 119.43219,59.6570602 C119.43597,59.5721738 119.449374,59.4621995 119.47051,59.3695806 C119.50694,59.1245442 119.331325,59.057184 119.238707,59.0360479 C119.238707,59.0360479 117.577408,58.7153958 115.859227,59.4809118 C113.15179,60.6871796 112.899182,62.9213758 113.479118,64.2230282 C114.368354,66.218895 116.021749,66.3350636 118.352003,66.1496652 C120.769034,65.9256044 122.345275,66.0553475 123.033467,67.5999749 C123.597938,68.8669165 122.733257,70.5209951 121.153918,71.2246513 C119.401027,72.0056324 117.590921,71.3976715 117.347775,71.3187981 C117.154804,71.2591704 117.056514,71.3653639 116.996887,71.5583342 L116.933478,71.836191 C116.879693,72.0889599 117.005132,72.1370742 117.147926,72.1774562 L117.147926,72.1774562 Z M125.811855,63.2918236 C127.02113,66.9143107 130.855277,68.7992303 134.459742,67.5959708 C138.082229,66.3866949 140.015226,62.5765601 138.80595,58.954073 C137.602691,55.3496082 133.750495,53.4106216 130.128008,54.6198975 C126.523543,55.823157 124.608595,59.6873588 125.811855,63.2918236 L125.811855,63.2918236 Z M126.604837,63.0271065 C125.551985,59.8731998 127.238818,56.4657318 130.392725,55.4128797 C133.546632,54.3600276 136.960116,56.0648834 138.012968,59.2187901 C139.06582,62.3726968 137.348932,65.7501364 134.195025,66.8029885 C131.041118,67.8558406 127.657689,66.1810132 126.604837,63.0271065 L126.604837,63.0271065 Z M144.936338,65.21593 C144.959791,65.3468459 145.092107,65.4389569 145.223023,65.4155039 L151.824922,64.2328021 C151.955837,64.2093491 152.054649,64.1144374 152.031196,63.9835216 L151.970888,63.6468809 C151.947435,63.5159651 151.908631,63.4071019 151.684203,63.4473071 L145.718182,64.5160942 L143.557154,52.453135 C143.533701,52.3222191 143.401385,52.2301081 143.289172,52.2502107 L142.877722,52.3239202 C142.746806,52.3473732 142.654695,52.4796894 142.678148,52.6106052 L144.936338,65.21593 Z M154.975597,64.0446793 C154.987543,64.1771417 155.111321,64.2804413 155.224861,64.2702018 L159.236579,63.908404 C162.90768,63.5773248 165.631318,60.3556637 165.298532,56.6656395 C164.970866,53.0323849 161.713065,50.3310841 158.041964,50.6621632 L154.030245,51.023961 C153.916706,51.0342006 153.813406,51.1579794 153.825353,51.2904418 L154.975597,64.0446793 Z M155.813789,63.3967734 L154.765941,51.7779279 L157.963962,51.4895136 C161.275522,51.1908597 164.057131,53.4772554 164.352372,56.7509691 C164.651026,60.0625293 162.32337,62.8097052 159.01181,63.1083591 L155.813789,63.3967734 Z M167.980075,64.0850302 L168.51173,64.1041847 C168.644644,64.1089733 168.743003,64.0174553 168.783715,63.9428728 L170.428601,60.5038666 L177.681896,60.7651885 L179.094025,64.3143329 C179.129264,64.3916518 179.220782,64.4900107 179.353696,64.4947993 L179.847376,64.5125856 C180.05624,64.5201106 180.060345,64.4061845 180.026474,64.2908902 L174.711357,50.8668173 C174.658499,50.750839 174.564244,50.7284309 174.469306,50.7250104 L174.412343,50.7229581 C174.317404,50.7195377 174.220414,50.7730803 174.179702,50.8476628 L167.855371,63.8523894 C167.792935,64.0022386 167.847162,64.0802416 167.980075,64.0850302 L167.980075,64.0850302 Z M170.797059,59.7756606 L174.376603,52.2426567 L174.414579,52.2440249 L177.385784,60.0130394 L170.797059,59.7756606 Z M187.742267,66.2777668 C187.71683,66.4083115 187.806922,66.5420105 187.937466,66.5674479 L188.273153,66.6328582 C188.459646,66.6691973 188.593344,66.5791052 188.618782,66.4485604 L189.476384,62.0473363 L192.870549,62.7087076 C195.164407,63.1556783 197.43729,61.6241129 197.891528,59.292956 C198.338499,56.9990977 196.8033,54.7448643 194.490792,54.2942597 L190.481202,53.5129694 C190.350657,53.487532 190.216958,53.5776241 190.191521,53.7081689 L187.742267,66.2777668 Z M189.643544,61.1894705 L190.944483,54.5130373 L194.26405,55.1598729 C196.110327,55.5196298 197.37477,57.2758861 197.018647,59.1035131 C196.651622,60.9870879 194.809388,62.1960631 192.981761,61.8399401 L189.643544,61.1894705 Z M199.441021,69.4230821 C199.401988,69.5502254 199.477511,69.6926623 199.604654,69.7316953 L199.986084,69.8487943 C200.113228,69.8878273 200.268252,69.8360436 200.312861,69.690737 L204.071182,57.4486515 C204.110215,57.3215081 204.034692,57.1790713 203.907549,57.1400383 L203.507955,57.0173631 C203.380812,56.9783301 203.238375,57.0538532 203.199342,57.1809965 L199.441021,69.4230821 Z M206.141812,65.0165783 C204.839798,68.606776 206.709916,72.4783062 210.282252,73.7738429 C211.871942,74.3503567 213.626716,74.3602031 215.268838,73.6218147 C215.390534,73.5648947 215.442356,73.4220013 215.378958,73.3181661 L215.18543,72.9043969 C215.133417,72.8249012 215.026246,72.7860351 214.886688,72.8364774 C213.491103,73.3409004 212.109853,73.5271481 210.573748,72.9700673 C207.447954,71.8364727 205.920735,68.4126715 207.034896,65.3404625 C208.155536,62.2503918 211.528895,60.5836142 214.654689,61.7172088 C216.119346,62.2483788 217.204579,63.2684841 217.892333,64.5486578 C217.960637,64.694694 218.043468,64.7449441 218.189504,64.6766401 L218.585412,64.4766345 C218.707108,64.4197145 218.741068,64.2703433 218.684148,64.1486465 C217.905322,62.673758 216.768076,61.5741569 214.946184,60.9134332 C211.373848,59.6178965 207.437349,61.4442423 206.141812,65.0165783 L206.141812,65.0165783 Z M218.025343,77.3545931 C217.955998,77.4898532 217.997195,77.6177313 218.132455,77.6870762 L218.470605,77.8604386 C218.605865,77.9297835 218.750222,77.9397378 218.836903,77.7706628 L221.688714,72.2080936 L224.593265,80.7858818 C224.65918,80.9904867 224.726382,81.0676423 224.878549,81.1456554 L225.419589,81.4230352 C225.639387,81.5357207 225.777219,81.3501669 225.719115,81.2136207 L222.622485,72.302492 L231.306099,69.857873 C231.459553,69.8084367 231.537995,69.613786 231.352012,69.5184367 L230.878602,69.2757294 C230.726434,69.1977163 230.675712,69.171712 230.479775,69.2207196 L221.98343,71.6332385 L224.661878,66.4088194 C224.739891,66.2566519 224.690455,66.1031981 224.538288,66.0251851 L224.233952,65.8691589 C224.081785,65.7911459 223.928331,65.8405822 223.850318,65.9927497 L218.025343,77.3545931 Z M228.315448,82.2294037 C228.397819,82.5552995 228.94463,84.4995984 230.838581,85.734536 C232.668869,86.927963 235.117626,86.7554453 236.155389,85.1638899 C237.359194,83.3176856 236.472666,81.6508855 234.779984,79.4811196 C233.514975,77.907766 232.864436,76.6443448 233.746534,75.2915227 C234.338059,74.3843361 235.858874,73.6521248 237.816487,74.9285728 C239.041985,75.72765 239.641334,77.139151 239.668325,77.2021149 C239.765215,77.4013845 239.891841,77.4159036 240.070355,77.350845 C240.143697,77.307938 240.243332,77.2594931 240.332589,77.2269638 C240.558152,77.1245361 240.519386,76.9404838 240.486857,76.8512266 C240.486857,76.8512266 239.85428,75.2819666 238.278641,74.2545816 C235.795814,72.6356719 233.782363,73.6364008 233.004041,74.8300674 C231.810614,76.6603562 232.610629,78.1119711 234.03135,79.9683135 C235.53165,81.876544 236.27838,83.2707329 235.354772,84.6872173 C234.597205,85.8490527 232.738672,86.0208243 231.290356,85.0764603 C229.682885,84.02832 229.210813,82.178118 229.145056,81.9311017 C229.090375,81.7366718 228.947833,81.7117751 228.753403,81.7664562 L228.485632,81.8640442 C228.244154,81.9560943 228.271843,82.0875602 228.315448,82.2294037 L228.315448,82.2294037 Z M242.642003,95.3342889 C242.606447,95.4040943 242.626364,95.4969831 242.683697,95.546872 L242.841364,95.6840664 C242.91303,95.7464275 242.980975,95.7551776 243.072002,95.7084555 L253.24758,89.22447 L253.276246,89.2494144 L248.26066,100.223399 C248.226966,100.32001 248.245021,100.386093 248.316688,100.448454 L248.474354,100.585649 C248.531687,100.635538 248.626437,100.642427 248.690659,100.597566 L260.134486,93.177082 C260.287875,93.0586934 260.267958,92.9658046 260.138958,92.8535546 L259.794959,92.5542213 C259.708959,92.479388 259.574932,92.4886935 259.485765,92.5622211 L249.783382,98.8786793 C249.769048,98.8662071 249.754715,98.8537349 249.754715,98.8537349 L254.676107,88.0748334 C254.722273,87.9638891 254.659357,87.8335836 254.573357,87.7587503 L254.54469,87.7338059 C254.458691,87.6589726 254.320941,87.614667 254.217441,87.6757224 L244.236391,94.0519303 C244.236391,94.0519303 244.222058,94.0394581 244.207725,94.0269859 L249.108449,83.5323341 C249.168949,83.433862 249.159644,83.2998344 249.073644,83.2250011 L248.729645,82.9256678 C248.600645,82.8134178 248.505895,82.8065289 248.409839,82.9748064 L242.642003,95.3342889 Z M253.239185,106.362373 C253.137609,106.448229 253.124133,106.608885 253.209989,106.710462 L258.128291,112.52935 C258.214147,112.630927 258.374803,112.644402 258.476379,112.558547 L258.708555,112.362305 C258.810131,112.276449 258.823606,112.115793 258.737751,112.014217 L254.248727,106.703211 L258.543967,103.072744 L262.432001,107.672713 C262.517856,107.77429 262.678513,107.787765 262.780089,107.701909 L263.026775,107.493403 C263.128352,107.407547 263.141827,107.246891 263.055971,107.145314 L259.167937,102.545345 L263.172958,99.1601793 L267.661982,104.471185 C267.747837,104.572762 267.908494,104.586237 268.01007,104.500381 L268.256756,104.291875 C268.358333,104.206019 268.371808,104.045363 268.285952,103.943786 L263.36765,98.1248972 C263.281795,98.0233206 263.121139,98.0098455 263.019562,98.0957011 L253.239185,106.362373 Z M260.439964,116.198131 C260.329953,116.272874 260.299724,116.431235 260.374468,116.541246 L264.656212,122.843296 C264.730955,122.953307 264.889316,122.983536 264.999327,122.908792 L265.25078,122.737949 C265.360791,122.663206 265.39102,122.504845 265.316277,122.394834 L261.408251,116.642838 L266.060138,113.48225 L269.444958,118.464169 C269.519702,118.57418 269.678063,118.604409 269.788074,118.529665 L270.055243,118.348145 C270.165254,118.273401 270.195483,118.11504 270.120739,118.00503 L266.735919,113.02311 L271.07349,110.076074 L274.981515,115.82807 C275.056259,115.938081 275.21462,115.96831 275.324631,115.893566 L275.5918,115.712046 C275.701811,115.637302 275.73204,115.478941 275.657296,115.36893 L271.375552,109.066881 C271.300809,108.95687 271.142448,108.926641 271.032437,109.001384 L260.439964,116.198131 Z M266.559741,126.719609 C266.425739,126.791355 266.386829,126.919947 266.458574,127.053949 L266.637938,127.388955 C266.709684,127.522957 266.822712,127.613304 266.990215,127.523622 L272.501051,124.573083 L270.00709,133.279117 C269.944833,133.484864 269.956174,133.586552 270.036887,133.737304 L270.32387,134.273313 C270.440457,134.491066 270.659396,134.416948 270.689338,134.271606 L273.215093,125.182167 L281.746363,128.114529 C281.900674,128.161221 282.075959,128.045821 281.977309,127.861568 L281.726199,127.392561 C281.645485,127.241808 281.618581,127.191558 281.429583,127.120333 L273.07056,124.268164 L278.246392,121.496989 C278.397144,121.416275 278.443836,121.261964 278.363123,121.111212 L278.201695,120.809707 C278.120981,120.658955 277.96667,120.612263 277.815918,120.692976 L266.559741,126.719609 Z M271.462081,137.633172 C271.338952,137.683453 271.276511,137.83209 271.326791,137.95522 L273.862384,144.164456 C273.912665,144.287586 274.026122,144.364393 274.149252,144.314112 L274.46587,144.184819 C274.588999,144.134538 274.687356,144.07385 274.60116,143.862771 L272.309789,138.251591 L283.655278,133.618568 C283.778407,133.568288 283.840849,133.41965 283.797751,133.314111 L283.639725,132.927133 C283.589445,132.804004 283.440807,132.741562 283.317678,132.791843 L271.462081,137.633172 Z M275.23899,148.811305 C274.949415,148.903837 275.125159,149.266555 275.200342,149.501834 C275.240825,149.628523 275.384115,149.702414 275.510804,149.661931 L281.447093,147.765014 L289.176611,150.481159 C289.356099,150.543483 289.459655,150.430607 289.401822,150.249622 L289.228323,149.706669 C289.199407,149.616177 289.134294,149.537251 289.04455,149.506089 L282.074212,147.105852 L286.384239,141.180805 C286.439283,141.103377 286.446563,141.001318 286.417647,140.910826 L286.244148,140.367873 C286.186316,140.186888 286.036493,140.154977 285.926405,140.309834 L281.15718,146.92017 L275.23899,148.811305 Z M280.830207,162.982875 C280.959505,163.75107 281.663141,164.268457 282.393863,164.145466 C283.162057,164.016167 283.676291,163.293795 283.546992,162.5256 C283.424001,161.794878 282.704782,161.299381 281.936588,161.42868 C281.205866,161.551671 280.707215,162.252153 280.830207,162.982875 L280.830207,162.982875 Z M292.805492,188.444524 L293.65866,188.388585 L292.858123,176.178801 C293.487195,176.48029 294.151701,176.741374 294.796003,176.984742 L295.003009,176.076253 C292.471175,175.21405 289.937482,173.742664 288.268457,172.100341 C288.150659,172.336554 287.892374,172.753345 287.751887,172.933923 C288.884463,173.944991 290.339346,174.934926 291.973878,175.760757 L292.805492,188.444524 Z M286.829635,182.971767 C287.499122,182.1472 288.326196,180.531627 288.80796,179.167184 L288.222091,178.653414 C287.721368,180.0191 286.856376,181.637158 286.167929,182.462969 L286.829635,182.971767 Z M283.89627,178.308691 C283.269047,179.777875 282.258596,181.500675 281.477839,182.370619 L282.159747,182.897134 C282.902585,182.029675 283.890348,180.251241 284.480895,178.803502 L283.89627,178.308691 Z M280.924036,175.666488 C281.977985,175.768753 283.242972,175.895262 284.583796,176.0168 L285.236408,185.970428 C283.695733,185.99528 282.495082,185.978797 281.596537,185.923465 L280.924036,175.666488 Z M289.608233,185.855156 C288.278596,185.904252 287.099391,185.924445 286.07186,185.934692 L285.426707,176.09482 C286.651289,176.185897 287.856912,176.278217 288.984212,176.337591 L289.608233,185.855156 Z M285.470105,189.534775 L286.304314,189.48008 L286.130284,186.825779 C287.252612,186.809316 288.506411,186.765192 289.988965,186.72511 C290.12168,186.716409 290.502109,186.710507 290.502109,186.710507 L289.767455,175.505565 C288.487238,175.437176 286.899943,175.331799 285.368282,175.203733 L285.181822,172.359839 L284.347613,172.414534 L284.526615,175.144672 C282.821835,174.989875 281.210608,174.809904 280.020215,174.659463 L280.75487,185.864405 C279.930919,185.785142 279.483667,185.643099 279.265171,185.505098 C279.045431,185.348138 278.995082,185.161031 278.972706,184.819764 C278.949088,184.459538 278.905894,183.51033 278.914605,182.481556 C278.695795,182.629188 278.379702,182.745116 278.153434,182.778993 C278.138507,183.71297 278.180458,184.643219 278.232981,185.153876 C278.305705,185.68225 278.462039,186.033775 278.862357,186.331222 C279.180622,186.538844 279.761832,186.691145 280.814537,186.774451 L280.97738,189.258118 L281.811588,189.203423 L281.656205,186.833511 C282.572466,186.86864 283.773117,186.885123 285.294832,186.861515 L285.470105,189.534775 Z M290.895102,206.262674 L289.046173,206.042435 L289.482156,202.38231 L291.331085,202.602549 L290.895102,206.262674 Z M288.504566,210.589292 L288.949538,206.8537 L290.798467,207.073939 L290.353496,210.80953 L288.504566,210.589292 Z M286.251611,206.532332 L288.194873,206.763807 L287.749901,210.499398 L285.806639,210.267923 L286.251611,206.532332 Z M287.237027,202.114878 L288.727491,202.292417 L288.291508,205.952542 L286.348246,205.721067 L286.784228,202.060942 L287.237027,202.114878 Z M285.051974,210.17803 L278.505256,209.398206 C278.241123,209.366743 278.176893,209.263421 278.191736,208.978174 C278.202085,208.730661 278.312204,207.806196 278.459169,206.733046 C278.217038,206.838144 277.861708,206.929759 277.611947,206.938276 C277.445644,208.334407 277.37237,209.110186 277.471615,209.562097 C277.573106,209.995141 277.817013,210.196403 278.401878,210.266071 L291.061383,211.77403 L292.245727,201.831319 L287.340405,201.247013 C284.925477,200.959355 281.618435,200.450624 279.326222,198.972121 C279.207169,199.168418 278.916956,199.516535 278.748044,199.649489 C280.772989,200.962216 283.661358,201.612418 286.031811,201.952182 L285.051974,210.17803 Z M280.509777,207.187785 L280.932275,203.64086 L283.762269,203.97796 L283.339771,207.524885 L280.509777,207.187785 Z M284.566847,203.32756 L280.30299,202.819663 L279.702952,207.857051 L283.966809,208.364948 L284.566847,203.32756 Z M290.112187,198.860105 C290.912686,198.725847 292.205078,198.477971 293.188861,198.250739 L293.077963,197.414753 C292.098675,197.604253 290.787417,197.849881 289.949184,197.979645 L290.112187,198.860105 Z M284.368577,199.209198 L284.329956,199.051523 L284.550194,197.202594 C285.763457,197.940278 287.336074,198.873842 288.650413,199.566162 L289.131342,195.528705 L288.282344,195.427575 L287.945244,198.257568 C286.541067,197.516278 284.949584,196.580467 283.885006,195.879628 L283.572627,198.502089 C282.164844,197.951712 280.578743,197.131348 279.529896,196.298443 C279.321059,195.642135 278.456384,194.869436 277.395414,193.977684 L276.559845,194.566989 C277.770861,195.32354 278.788715,196.09535 278.737027,196.529283 C278.683091,196.982082 277.93736,197.620357 277.396915,198.302219 C276.381615,199.597219 275.974069,201.251628 275.679669,203.723156 C275.414484,205.949418 275.089454,209.641893 275.007607,210.971546 C275.288359,211.024123 275.704313,211.226745 275.936095,211.36916 C275.996883,209.252491 276.187544,206.366786 276.490934,203.819791 C276.760614,201.555796 277.104817,199.951245 278.075643,198.70835 C278.665057,197.93665 279.134059,197.533292 279.391033,197.142947 C280.638423,198.076039 282.460801,199.001084 284.085994,199.653896 L284.368577,199.209198 Z M279.284771,229.072701 L280.296625,225.865534 L279.481244,225.608283 L277.051651,233.309108 L277.867032,233.566359 L279.01037,229.942441 L281.764547,230.811378 L280.478292,234.888285 L281.293674,235.145536 L282.579929,231.068629 L284.772399,231.760349 L285.0468,230.890608 L282.85433,230.198889 L284.123435,226.17634 L283.308053,225.919089 L282.038948,229.941638 L279.284771,229.072701 Z M277.683125,223.28774 L277.786492,221.128801 L282.479466,222.609424 L281.85063,224.602578 L282.70225,224.871263 L283.331086,222.878108 L287.154319,224.08433 L287.42872,223.214589 L283.605487,222.008368 L284.131423,220.341366 C284.864831,220.73214 285.658316,221.121945 286.45083,221.451674 L286.812052,220.748788 C284.603301,219.792931 282.408791,218.602488 281.066771,217.362233 C280.949529,217.544398 280.677835,217.83722 280.535787,217.971713 C281.267357,218.620909 282.239229,219.266227 283.336969,219.891486 L282.753867,221.739684 L277.861578,220.196177 C277.92416,218.861145 277.982965,217.664383 278.05805,216.731759 L277.108277,216.711033 C277.06943,217.65509 277.021089,218.755537 276.973718,219.91606 L271.030493,218.040986 L270.756092,218.910726 L276.916752,220.8544 L276.83916,223.121087 L277.683125,223.28774 Z M274.834104,224.361276 C273.629887,224.957585 272.023262,225.566397 271.059247,225.780255 L271.265449,226.642239 C272.222779,226.386425 273.811284,225.771897 275.015501,225.175588 L274.834104,224.361276 Z M274.251941,233.342273 L274.972244,231.059205 L276.947279,231.682324 L277.215963,230.830703 L275.240928,230.207584 L277.293219,223.702652 L276.459718,223.439684 L274.407427,229.944616 L269.170866,228.292493 C268.917192,228.212459 268.86758,228.117114 268.929494,227.857723 C269.002842,227.562093 269.288676,226.656114 269.673633,225.562252 C269.356106,225.621459 268.971817,225.639679 268.695276,225.632124 C268.295108,226.900495 268.037857,227.715876 268.058016,228.220316 C268.060055,228.719039 268.286116,228.949746 268.884062,229.138397 L274.138743,230.796237 L273.41844,233.079305 L274.251941,233.342273 Z M270.103935,255.321231 L268.764867,254.601997 L270.365161,251.622571 L271.704229,252.341804 L270.103935,255.321231 Z M266.03001,253.068364 C265.80525,253.486823 265.588237,253.93101 265.530567,254.158842 C265.715932,254.215269 266.001726,254.325639 266.211577,254.416786 C266.287228,254.155478 266.522221,253.677813 266.684048,253.376523 L267.987659,250.949462 C268.194438,250.56448 268.373297,250.552711 268.841971,250.804443 L269.729104,251.280935 L267.733231,254.996849 L270.344414,256.399354 L272.717884,251.980429 L269.236307,250.110423 C268.298959,249.606959 267.855064,249.670478 267.369582,250.574349 L266.03001,253.068364 Z M273.024578,249.923733 L271.685509,249.2045 L273.240851,246.308765 L274.579919,247.027998 L273.024578,249.923733 Z M271.01465,245.11304 L272.604794,245.967129 L270.653874,249.599352 L273.265057,251.001857 L275.593574,246.666623 L272.028305,244.751665 C271.425725,244.42801 271.358478,244.111517 271.373681,243.882443 C271.126626,243.900717 270.718693,243.897282 270.465133,243.84736 C270.480922,244.179349 270.365582,244.635012 269.195809,248.29859 C269.345211,248.421971 269.577063,248.632771 269.732971,248.824348 L271.01465,245.11304 Z M266.687904,245.981032 L264.970735,249.178057 L263.129516,248.189111 L264.846685,244.992086 L266.687904,245.981032 Z M261.016768,252.122624 L262.724947,248.942337 L264.566166,249.931283 L263.226594,252.425297 L263.912867,252.793904 L265.252438,250.29989 L266.65846,251.055085 L267.063029,250.301859 L265.657007,249.546664 L267.374176,246.349639 L268.780198,247.104834 L269.193757,246.334869 L267.787736,245.579675 L269.091346,243.152614 L268.405073,242.784007 L267.101463,245.211068 L265.260244,244.222122 L266.923471,241.125527 L266.237199,240.75692 L260.330496,251.754017 L261.016768,252.122624 Z M258.098739,250.167097 C259.28599,249.683291 260.923054,248.643098 262.305316,247.595451 L262.16556,246.851802 C260.77555,247.87372 259.17569,248.804492 258.032149,249.247074 L258.098739,250.167097 Z M263.951805,244.489865 C263.606875,243.204669 263.556144,241.452042 263.685807,239.925711 C263.460754,240.063638 263.014374,240.212091 262.808544,240.274075 C262.781796,241.769415 262.94721,243.669909 263.33088,245.083749 L263.951805,244.489865 Z M274.377078,243.7918 C275.214945,243.918322 276.615117,244.001791 277.71802,244.076563 L277.894757,243.265667 C276.817583,243.183147 275.359448,243.046978 274.495852,242.928204 L274.377078,243.7918 Z M269.126791,241.360004 L269.165238,241.208116 L269.911443,239.818833 C270.770948,240.94907 271.902287,242.376284 272.871212,243.543726 L274.642324,240.24627 L273.889098,239.841701 L272.711354,242.034426 C271.658737,240.822032 270.52864,239.352351 269.803042,238.294037 L268.589336,240.553715 C267.36188,239.50622 266.086401,238.066288 265.468688,236.807114 C265.317456,236.165138 264.866177,235.318866 264.323458,234.401914 L263.364988,234.620392 C264.198765,235.758377 264.889644,236.841177 264.700845,237.192683 C264.485075,237.594403 263.557597,237.915796 262.79626,238.36956 C261.368753,239.220368 260.375494,240.627925 259.197749,242.820649 C258.1189,244.829251 256.439227,248.197388 255.876852,249.405034 C256.118937,249.556628 256.440986,249.880576 256.595652,250.11462 C257.451933,248.159011 258.676821,245.517129 259.908508,243.223975 C260.987358,241.215373 261.921412,239.797583 263.288471,238.979009 C264.196432,238.453029 264.806175,238.24135 265.17259,237.920543 C265.975668,239.236144 267.287108,240.609123 268.631732,241.71955 L269.126791,241.360004 Z" id="SOLDA-PICKS-WEEKLY-•" fill="#FF5E6F" sketch:type="MSShapeGroup"></path>
        </g>
    </g>
</svg>